<svg version="1.1" xmlns="http://www.w3.org/2000/svg" xmlns:xlink="http://www.w3.org/1999/xlink" width="722.89629" height="546.46024" viewBox="0,0,722.89629,546.46024"><g transform="translate(121.44814,96.95065)"><g data-paper-data="{&quot;isPaintingLayer&quot;:true}" fill-rule="nonzero" stroke-linejoin="miter" stroke-miterlimit="10" stroke-dasharray="" stroke-dashoffset="0" style="mix-blend-mode: normal"><path d="M-120.84814,448.90959v-545.26024h721.69629v545.26024z" fill="#92894c" stroke="#898989" stroke-width="1.2" stroke-linecap="butt"/><path d="M193.7458,93.46444c2.3387,-1.63692 7.24997,0.97087 7.24997,0.97087c0,0 1.90779,-3.57999 3.65644,-1.84138c1.18669,1.17988 4.77992,7.72607 4.77992,7.72607l24.91534,25.7544l-6.69381,6.73242l-32.43803,-32.25201c0,0 -3.80853,-5.45346 -1.46983,-7.09037z" data-paper-data="{&quot;index&quot;:null}" fill="#b9894a" stroke="#97703c" stroke-width="2" stroke-linecap="butt"/><path d="M224.68572,94.68824c0,22.34122 2.21864,40.45234 -6.50127,40.45234c-8.71991,0 -15.7888,-18.11112 -15.7888,-40.45234c0,-22.3412 7.06889,-40.45234 15.7888,-40.45234c8.71992,0 6.50127,18.11113 6.50127,40.45234z" data-paper-data="{&quot;index&quot;:null}" fill="#b9894a" stroke="#97703c" stroke-width="2" stroke-linecap="butt"/><path d="M250.47285,148.58852c2.78948,-4.99366 7.37181,6.49056 17.5256,12.1625c10.15379,5.67194 22.034,3.38375 19.24452,8.37741c-2.78947,4.99366 -13.28206,4.44382 -23.43586,-1.22813c-10.15379,-5.67193 -16.12375,-14.31812 -13.33426,-19.31179z" fill="#b9894a" stroke="#97703c" stroke-width="2" stroke-linecap="butt"/><path d="M224.79069,189.82803c-4.55705,-4.92398 3.28243,-4.14029 5.28228,-9.25309c2.80504,-7.17138 1.91001,-28.00296 1.91001,-28.00296h7.91152l-0.28769,39.41374c0,0 -10.25906,2.7663 -14.81611,-2.15769z" fill="#b9894a" stroke="#97703c" stroke-width="2" stroke-linecap="butt"/><path d="M244.18109,190.66233c-4.55706,-4.92398 3.28244,-4.14028 5.28228,-9.25309c2.80504,-7.17138 1.91001,-28.00296 1.91001,-28.00296h7.91152l-0.28769,39.41374c0,0 -10.25907,2.7663 -14.81612,-2.15769z" fill="#b9894a" stroke="#97703c" stroke-width="2" stroke-linecap="butt"/><path d="M225.438,159.40464v-60.19946h39.48566v60.19946z" fill="#b9894a" stroke="#97703c" stroke-width="2" stroke-linecap="butt"/><path d="M241.36562,110.13747c9.02409,0 13.7765,10.81952 13.7765,24.16609c0,13.34657 -4.75241,24.16609 -13.7765,24.16609c-9.02409,0 -14.41726,-10.81952 -14.41726,-24.16609c0,-13.34657 5.39317,-24.16609 14.41726,-24.16609z" fill="#936d3b" stroke="none" stroke-width="0" stroke-linecap="butt"/><path d="M300.17512,89.14687c1.50976,2.42274 -1.35644,7.18781 -1.35644,7.18781c0,0 3.47307,2.09614 1.6436,3.7495c-1.24154,1.12202 -7.97017,4.36075 -7.97017,4.36075l-27.04749,23.50525l-6.36556,-7.0436l33.93735,-30.67042c0,0 5.64896,-3.51203 7.15872,-1.0893z" data-paper-data="{&quot;index&quot;:null}" fill="#b9894a" stroke="#97703c" stroke-width="2" stroke-linecap="butt"/><path d="M225.16389,109.76824v-4.74691h39.9172v4.74691z" fill="#8d6939" stroke="none" stroke-width="0" stroke-linecap="butt"/><path d="M204.75845,76.85434c0,-18.86463 18.50928,-31.06161 40.83244,-31.06161c22.32317,0 40.00689,12.19697 40.00689,31.06161c0,18.86464 -17.89011,31.26801 -40.21327,31.26801c-22.32316,0 -40.62605,-12.40338 -40.62605,-31.26801z" fill="#b9894a" stroke="#97703c" stroke-width="2" stroke-linecap="butt"/><path d="M272.49205,53.22277c8.71991,0 15.78879,18.11113 15.78879,40.45234c0,22.34121 -7.06888,40.45233 -15.78879,40.45233c-8.71991,0 -6.50128,-18.11112 -6.50128,-40.45233c0,-22.3412 -2.21864,-40.45233 6.50128,-40.45233z" fill="#b9894a" stroke="#97703c" stroke-width="2" stroke-linecap="butt"/><path d="M238.74559,89.23544c0,0 -1.19481,4.00853 -3.21116,4.04885c-2.01635,0.04033 -3.76963,-3.90924 -3.76963,-3.90924c0,0 2.51139,-0.76673 3.56896,-0.78788c1.24016,-0.02481 3.41183,0.64827 3.41183,0.64827z" fill="#000000" stroke="#000000" stroke-width="2" stroke-linecap="round"/><path d="M253.74498,95.94349c0,0 -5.10001,4.31594 -7.91156,4.85242c-2.81154,0.53648 -19.83165,-2.21524 -19.83165,-2.21524" fill="none" stroke="#000000" stroke-width="2" stroke-linecap="round"/><path d="M279.1664,184.10476c1.40305,2.9952 -2.55085,8.08216 -2.55085,8.08216c0,0 3.7067,2.88999 1.37422,4.53999c-1.58289,1.11974 -9.76995,3.91855 -9.76995,3.91855l-34.35481,23.31434l-6.35261,-8.98022l43.26833,-30.60803c0,0 6.98262,-3.262 8.38567,-0.26679z" data-paper-data="{&quot;index&quot;:null}" fill="#cbcbcb" stroke="#909090" stroke-width="2" stroke-linecap="butt"/><path d="M210.49305,235.30459c0,0 -4.67948,-1.26543 -5.42244,-0.7477c-5.23481,3.64785 -11.91583,7.52345 -16.62705,11.92377c-5.37654,5.02171 -4.52191,9.41545 -4.52191,9.41545c0,0 -4.65981,-3.78588 -6.14132,-4.53243c-2.52175,-1.27073 -6.51626,0.94381 -7.70137,-0.73149c-1.98249,-2.8025 1.93372,-10.46672 4.17366,-17.17569c2.30448,-6.90226 2.96392,-12.81321 2.96392,-12.81321c0,0 13.99636,-7.36942 20.56157,-12.01366c1.78484,-1.26259 5.42713,0.38794 7.51864,-2.51595c1.69444,-2.3526 5.19583,-8.93618 5.19583,-8.93618c0,0 6.3777,-1.228 9.75382,-2.42757c2.00962,-0.71405 5.49059,-4.64077 5.49059,-4.64077l17.04013,-5.14427c0,0 2.78141,10.0496 3.8297,11.53148c3.9755,5.61988 -10.83718,22.14777 -10.83718,22.14777c0,0 -16.34259,6.3061 -23.07655,11.0697c-1.73701,1.22876 -2.20004,5.59073 -2.20004,5.59073z" data-paper-data="{&quot;index&quot;:null}" fill="#cbcbcb" stroke="#909090" stroke-width="2" stroke-linecap="butt"/><path d="M283.57796,218.01518c2.85699,-5.97998 15.03011,-6.11842 27.18942,-0.30921c1.67416,0.79984 7.52727,-2.13085 7.52727,-2.13085c0,0 -0.32958,7.12854 0.57363,7.96619c6.82471,6.32919 10.91811,10.95697 8.74243,15.5109c-0.85219,1.7837 -3.49812,-1.0733 -5.16842,-1.19866c-2.11664,-0.15886 -6.88034,3.42915 -6.88034,3.42915c0,0 0.46594,-4.87403 -0.84843,-7.95912c-1.38331,-3.24691 -5.88562,-5.90487 -7.90412,-6.86922c-12.15932,-5.80921 -26.08843,-2.4592 -23.23145,-8.43919z" fill="#cbcbcb" stroke="#909090" stroke-width="2" stroke-linecap="butt"/><path d="M317.35658,178.69854l-37.08902,26.64508l-5.29384,-7.48351c0,0 20.30352,-13.09245 25.20999,-20.54433c1.44014,-2.18726 -1.3146,-9.27098 -1.3146,-9.27098c0,0 1.88444,-0.46164 3.42452,-0.5094c1.07315,-0.03328 1.24612,-1.65307 3.10806,-1.40767c7.70687,1.01573 11.95488,12.57081 11.95488,12.57081z" fill="#cbcbcb" stroke="#909090" stroke-width="2" stroke-linecap="butt"/><path d="M331.1205,196.4817l-37.08901,26.64507l-5.29384,-7.48351c0,0 20.30352,-13.09245 25.20999,-20.54433c3.49805,-5.31279 -2.48889,-12.20379 5.21797,-11.18805c2.63674,0.34751 6.50813,4.65317 9.50031,6.99962c1.70368,1.33601 3.86241,1.74525 3.86241,1.74525z" fill="#cbcbcb" stroke="#909090" stroke-width="2" stroke-linecap="butt"/><path d="M303.47842,224.44681c0,0 -5.79297,3.98691 -11.21051,8.34776c-1.23847,0.99689 -3.15862,3.96057 -3.15862,3.96057c0,0 -3.0397,0.44399 -4.49065,1.43081c-12.86174,8.74744 -38.08298,26.54219 -38.08298,26.54219l-26.42108,-37.34955c0,0 25.54802,-18.00257 38.28755,-27.3309c1.54677,-1.1326 3.12351,-3.80066 3.12351,-3.80066c0,0 5.41156,-1.8989 7.90485,-3.3516c4.33485,-2.52566 7.62685,-5.79816 7.62685,-5.79816l5.57307,1.38485l0.84819,7.25899z" fill="#cbcbcb" stroke="#909090" stroke-width="2" stroke-linecap="butt"/><path d="M254.32482,205.32184c12.62454,-8.9306 26.46748,-11.06887 32.50579,-2.53296c6.03831,8.53591 -1.01592,20.27089 -13.64046,29.20149c-12.62454,8.9306 -26.03872,11.67498 -32.07703,3.13906c-6.03831,-8.53591 0.58716,-20.877 13.2117,-29.8076z" fill="#a4a4a4" stroke="none" stroke-width="0" stroke-linecap="butt"/><path d="M300.94566,226.66721l-43.26833,30.60803l-6.35261,-8.98022l33.42294,-24.63166c0,0 5.36511,-6.78799 6.948,-7.90773c2.33248,-1.65 3.82337,2.80746 3.82337,2.80746c0,0 6.1132,-2.03451 8.47033,0.28577c2.35713,2.32029 -3.0437,7.81834 -3.0437,7.81834z" fill="#cbcbcb" stroke="#909090" stroke-width="2" stroke-linecap="butt"/><path d="M256.63259,257.80896l-4.49011,3.1763l-26.70983,-37.75774l4.49011,-3.1763z" fill="#797979" stroke="none" stroke-width="0" stroke-linecap="butt"/><path d="M185.13556,222.77337c17.84409,-12.62291 41.82348,-3.60966 56.7606,17.50585c14.93712,21.11552 15.17557,46.33726 -2.66852,58.96018c-17.84409,12.62291 -41.21395,4.05723 -56.15107,-17.05829c-14.93712,-21.11552 -15.78511,-46.78483 2.05899,-59.40775z" fill="#cbcbcb" stroke="#909090" stroke-width="2" stroke-linecap="butt"/><path d="M219.58866,246.63729c0,0 -2.0898,-1.60382 -2.89617,-2.79348c-0.68764,-1.01451 -1.64283,-3.90309 -1.64283,-3.90309c0,0 4.90908,-0.98436 6.22013,0.9499c1.31106,1.93425 -1.68112,5.74667 -1.68112,5.74667z" fill="#000000" stroke="#000000" stroke-width="2" stroke-linecap="round"/><path d="M219.90107,228.32973c0,0 13.99151,14.25807 15.36535,17.27649c1.37384,3.01843 0.70396,10.73047 0.70396,10.73047" fill="none" stroke="#000000" stroke-width="2" stroke-linecap="round"/><g stroke-linecap="butt"><path d="M210.49756,255.17015c5.66052,-4.00425 13.52111,-2.62516 17.55714,3.08028c4.03603,5.70544 2.71913,13.5767 -2.94138,17.58095c-5.66052,4.00425 -13.52111,2.62516 -17.55714,-3.08029c-4.03603,-5.70544 -2.71913,-13.57669 2.94139,-17.58094z" fill="#ffffff" stroke="#d7d7d7" stroke-width="2"/><path d="M212.31904,257.05491c2.87518,-2.0339 6.70021,-1.57042 8.54343,1.0352c1.84323,2.60564 1.00665,6.36672 -1.86853,8.40063c-2.87518,2.0339 -6.70021,1.57042 -8.54343,-1.0352c-1.84323,-2.60564 -1.00665,-6.36672 1.86853,-8.40063z" fill="#000000" stroke="none" stroke-width="0"/></g><path d="M242.13428,269.60115c6.73395,-4.7636 18.12173,-18.07396 18.12173,-18.07396c0,0 20.5169,-8.46426 24.49241,-2.84438c1.04828,1.48188 9.59833,7.45075 9.59833,7.45075l-10.5245,14.35494c0,0 -4.8617,1.97488 -6.20414,3.63208c-2.25525,2.78406 -5.53672,8.38896 -5.53672,8.38896c0,0 -7.37376,1.1095 -10.1563,1.92392c-3.43459,1.00528 -3.09099,4.98931 -4.87583,6.2519c-6.56522,4.64424 -18.17443,15.3882 -18.17443,15.3882c0,0 -5.79322,-1.34632 -13.06896,-1.47155c-7.07197,-0.12171 -15.60283,1.01911 -17.58531,-1.78339c-1.18511,-1.6753 2.23311,-4.70452 1.87454,-7.50548c-0.21066,-1.64554 -2.22896,-7.30003 -2.22896,-7.30003c0,0 3.85846,2.26883 10.38383,-1.12888c5.71791,-2.97725 11.59691,-7.98662 16.77962,-11.70812c0.73557,-0.52818 1.10045,-5.36199 1.10045,-5.36199c0,0 4.26725,1.01578 6.00426,-0.21299z" fill="#cbcbcb" stroke="#909090" stroke-width="2" stroke-linecap="butt"/><g stroke-linecap="butt"><path d="M184.73575,242.56941c-4.03603,-5.70544 -2.71913,-13.57669 2.94139,-17.58094c5.66052,-4.00425 13.52111,-2.62516 17.55714,3.08028c4.03603,5.70544 2.71912,13.57669 -2.94139,17.58094c-5.66051,4.00425 -13.52111,2.62516 -17.55714,-3.08028z" fill="#ffffff" stroke="#d7d7d7" stroke-width="2"/><path d="M192.57873,242.26938c-1.84323,-2.60564 -1.00665,-6.36672 1.86853,-8.40063c2.87518,-2.0339 6.7002,-1.57042 8.54343,1.03521c1.84323,2.60564 1.00666,6.36672 -1.86852,8.40062c-2.87518,2.0339 -6.70021,1.57042 -8.54343,-1.0352z" fill="#000000" stroke="none" stroke-width="0"/></g><path d="M198.4491,267.96743l10.72173,14.4639" fill="none" stroke="#909090" stroke-width="2" stroke-linecap="round"/><path d="M177.27232,236.64611l9.05693,12.45681" fill="none" stroke="#909090" stroke-width="2" stroke-linecap="round"/><g><path d="M127.98609,189.93731l-0.79157,-6.82057l4.30773,-0.49994l0.79157,6.82057z" fill="#fff4e8" stroke="#c8bfb6" stroke-width="2" stroke-linecap="butt"/><path d="M148.32038,188.03217l-0.79157,-6.82057l4.30773,-0.49994l0.79157,6.82057z" fill="#fff4e8" stroke="#c8bfb6" stroke-width="2" stroke-linecap="butt"/><path d="M135.76079,190.8156c0.1857,1.60008 -1.6269,1.61497 -3.83523,1.87126c-2.20833,0.25629 -3.97616,0.65692 -4.16186,-0.94315c-0.1857,-1.60008 1.45398,-3.10495 3.66231,-3.36124c2.20833,-0.25629 4.14908,0.83306 4.33478,2.43314z" fill="#000000" stroke="none" stroke-width="0" stroke-linecap="butt"/><path d="M148.3259,136.27575c-0.93537,0.18033 -4.79726,0.6043 -5.29993,0.66264c-0.10515,0.0122 -0.15533,-0.11839 -0.24573,-0.3514c-0.09039,-0.23301 -0.12631,-0.2651 -0.18547,-0.76014c-0.47767,-3.99734 -2.56871,-22.29223 -2.87727,-24.95092c-0.07318,-0.63056 -0.09887,-0.77959 -0.05515,-1.15446c0.04372,-0.37486 0.07717,-0.4522 0.2448,-0.47165c0.98951,-0.11484 4.42887,-0.26072 5.00695,-0.32781c0.15472,-0.01796 0.35586,-0.04518 0.47807,0.13448c0.1222,0.17966 0.16363,0.50429 0.22455,1.02927c0.27149,2.33927 2.20614,19.25177 2.77692,24.36863c0.10297,0.92316 0.12858,1.14065 0.11642,1.46762c-0.01216,0.32697 -0.05329,0.32851 -0.18416,0.35374z" data-paper-data="{&quot;index&quot;:null}" fill="#5a5a5a" stroke="#373737" stroke-width="2" stroke-linecap="butt"/><path d="M145.06025,135.12379c2.80865,-0.32596 5.33421,1.55273 5.64099,4.19616c0.09401,0.81004 -0.21175,4.74473 -0.55494,5.08323c-0.46216,0.45584 -1.10829,-2.78491 -2.03578,-2.22798c-0.28881,0.17343 -0.02436,2.41834 -0.2913,2.50876c-0.31657,0.10723 -1.16948,-1.953 -1.59749,-1.90332c-0.412,0.04782 -0.18922,2.38111 -0.58479,2.40895c-0.37585,0.02645 -0.88716,-1.91571 -1.26497,-2.0229c-0.40633,-0.11528 -0.33062,2.27551 -0.70381,2.17006c-0.77098,-0.21785 -1.03785,-2.72424 -1.64761,-3.81704c-0.50079,-0.8975 -1.34182,1.82768 -1.41985,1.15534c-0.30678,-2.64343 1.6509,-7.2253 4.45955,-7.55126z" data-paper-data="{&quot;index&quot;:null}" fill="#fff4e8" stroke="#c8bfb6" stroke-width="2" stroke-linecap="butt"/><path d="M123.02851,153.01841c-0.27375,-0.49011 -0.31269,-0.83898 -0.5021,-2.316c-1.04991,-8.18674 -4.31583,-35.27865 -4.75103,-39.02853c-0.09766,-0.84154 -0.14211,-1.36448 0.25511,-1.72131c0.39722,-0.35683 1.27038,-0.45194 1.93999,-0.52965c2.50186,-0.29035 17.2149,-2.40389 21.49736,-2.90089c0.72551,-0.0842 0.92016,0.01095 1.36053,0.55262c0.44037,0.54168 0.43241,0.78629 0.54972,1.79707c0.49462,4.26192 4.03492,33.56706 4.72014,39.98422c0.08486,0.79471 -0.04599,0.86801 -0.27183,1.28455c-0.22584,0.41654 -0.3504,0.64968 -0.80548,0.70249c-2.17549,0.25248 -18.87275,2.22912 -22.96964,2.58953c-0.57321,0.05043 -0.74901,0.07602 -1.02275,-0.41409z" fill="#5a5a5a" stroke="#373737" stroke-width="2" stroke-linecap="butt"/><path d="M125.40643,108.93175l1.12136,-6.01177l4.84619,-0.56243l2.22909,5.62293c0,0 -2.94969,1.55504 -4.37826,1.72083c-1.28934,0.14964 -3.81838,-0.76957 -3.81838,-0.76957z" fill="#fff4e8" stroke="#c8bfb6" stroke-width="2" stroke-linecap="butt"/><path d="M155.58882,71.71564c1.84071,15.86061 -9.84611,30.24768 -26.10324,32.13441c-16.25713,1.88673 -30.92833,-9.44135 -32.76904,-25.30196c-1.84071,-15.86061 9.8461,-30.24768 26.10323,-32.13441c16.25713,-1.88673 30.92833,9.44134 32.76905,25.30195z" fill="#fff4e8" stroke="#c8bfb6" stroke-width="2" stroke-linecap="butt"/><path d="M139.95844,83.837c0,0 3.55987,0.6012 3.53773,2.23391c-0.0093,0.68554 -0.54982,0.68056 -1.28043,0.73784c-1.00944,0.07915 -2.29823,0.04702 -2.29823,0.04702" fill="none" stroke="#c8bfb6" stroke-width="1.5" stroke-linecap="round"/><path d="M120.09148,140.12969c-0.08673,-0.3155 -0.11161,-0.53306 -0.2228,-1.45527c-0.61629,-5.11157 -2.60647,-22.01764 -2.87795,-24.35691c-0.06093,-0.52498 -0.09495,-0.85047 -0.01714,-1.05334c0.07781,-0.20287 0.27984,-0.22243 0.43456,-0.24039c0.57808,-0.06709 3.95943,-0.71279 4.94894,-0.82763c0.16763,-0.01945 0.21791,0.04815 0.34632,0.40304c0.12841,0.35489 0.13754,0.50585 0.21072,1.1364c0.30856,2.6587 2.4631,20.94622 2.91363,24.94671c0.05579,0.49543 0.02818,0.53489 -0.00645,0.78241c-0.03463,0.24752 -0.05357,0.38614 -0.15872,0.39834c-0.50267,0.05834 -4.35902,0.5301 -5.31082,0.56879c-0.13317,0.00541 -0.17355,0.01335 -0.26028,-0.30215z" fill="#5a5a5a" stroke="#373737" stroke-width="2" stroke-linecap="butt"/><path d="M129.33725,144.89176c0.07803,0.67234 -1.36479,-1.78778 -1.64672,-0.79945c-0.34327,1.2034 -0.02902,3.7043 -0.72961,4.09293c-0.33912,0.18812 -0.81298,-2.15647 -1.18211,-1.95119c-0.34322,0.19087 -0.39613,2.19852 -0.76805,2.25885c-0.39142,0.0635 -0.70895,-2.25881 -1.12095,-2.211c-0.42802,0.04967 -0.78642,2.25048 -1.11913,2.2186c-0.28055,-0.02688 -0.53727,-2.27269 -0.85813,-2.37536c-1.03039,-0.32971 -0.91712,2.97289 -1.4714,2.63501c-0.41159,-0.2509 -1.61037,-4.01098 -1.70438,-4.82102c-0.30678,-2.64343 1.72137,-5.05061 4.53002,-5.37657c2.80865,-0.32596 5.76367,3.68576 6.07045,6.32919z" fill="#fff4e8" stroke="#c8bfb6" stroke-width="2" stroke-linecap="butt"/><path d="M123.47173,166.52631c-0.47416,-3.16303 -0.90082,-14.07333 -0.90082,-14.07333c0,0 7.02561,0.306 12.91762,-0.42523c5.69474,-0.70674 12.71324,-3.27211 12.71324,-3.27211c0,0 2.39313,12.5409 2.61826,15.03104c0.02788,0.30838 2.12574,18.55194 1.85279,18.73479c-0.27295,0.18286 -5.07878,0.53524 -5.56705,0.59191c-0.65139,0.0756 -3.87073,-22.60658 -3.87073,-22.60658l-11.95281,1.6117c0,0 0.45644,12.62243 0.40002,17.33857c-0.05589,4.67212 1.08067,5.05795 0.29029,5.14165c-0.61374,0.065 -5.35268,0.75803 -5.60541,0.58522z" fill="#acacac" stroke="#848484" stroke-width="2" stroke-linecap="butt"/><path d="M156.04301,188.46174c0.1857,1.60008 -1.6269,1.61497 -3.83523,1.87126c-2.20833,0.25629 -3.97616,0.65692 -4.16186,-0.94315c-0.1857,-1.60008 1.45398,-3.10495 3.66231,-3.36124c2.20833,-0.25629 4.14908,0.83306 4.33478,2.43314z" fill="#000000" stroke="none" stroke-width="0" stroke-linecap="butt"/><path d="M143.04292,95.01386c0,0 -5.15774,6.23527 -9.19098,5.29932c-4.03324,-0.93595 -3.44839,-8.2324 -3.44839,-8.2324z" data-paper-data="{&quot;index&quot;:null}" fill="#000000" stroke="#000000" stroke-width="1.5" stroke-linecap="round"/><path d="M136.54316,74.74753c0.47714,4.11135 -2.28758,7.81 -6.17518,8.26118c-3.8876,0.45118 -7.42593,-2.51598 -7.90307,-6.62732c-0.47714,-4.11135 2.64141,-3.88492 6.52901,-4.3361c3.8876,-0.45118 7.0721,-1.40911 7.54924,2.70224z" fill="#ffffff" stroke="#c7c7c7" stroke-width="2" stroke-linecap="butt"/><path d="M134.9903,75.9029c0.20125,1.73404 -0.58787,3.25027 -1.76255,3.3866c-1.17467,0.13633 -2.29007,-1.15888 -2.49131,-2.89291c-0.20125,-1.73404 0.58787,-3.25027 1.76254,-3.38659c1.17467,-0.13633 2.29007,1.15887 2.49132,2.89291z" fill="#000000" stroke="none" stroke-width="0" stroke-linecap="butt"/><path d="M155.3213,72.67279c0.47714,4.11135 -1.8568,7.76001 -5.213,8.14952c-3.3562,0.38951 -6.46374,-2.62765 -6.94088,-6.73899c-0.47714,-4.11135 2.50389,-3.93675 5.86009,-4.32626c3.3562,-0.38951 5.81665,-1.19561 6.29379,2.91574z" fill="#ffffff" stroke="#c7c7c7" stroke-width="2" stroke-linecap="butt"/><path d="M154.36224,73.65467c0.20125,1.73404 -0.58787,3.25027 -1.76254,3.3866c-1.17467,0.13633 -2.29008,-1.15888 -2.49132,-2.89291c-0.20125,-1.73404 0.58788,-3.25027 1.76255,-3.38659c1.17467,-0.13633 2.29007,1.15887 2.49131,2.89291z" fill="#000000" stroke="none" stroke-width="0" stroke-linecap="butt"/><path d="M98.46834,59.30768l0.42488,-0.3573c2.62645,-1.93389 4.93174,-4.57083 7.17481,-6.96303c0.92557,-0.98711 1.67064,-1.91841 3.05162,-2.34157c0.06938,-0.02125 0.98634,-0.13074 1.71212,-0.21541c1.04834,-1.10712 2.03661,-2.11447 3.49653,-2.79498c1.97768,-0.92185 4.2899,-0.95578 6.4162,-1.20255c2.25872,-0.26214 4.54892,-0.65602 6.8271,-0.6493c2.11866,0.00625 4.23151,0.13607 6.35222,0.09449c0.94097,0.22986 1.93898,0.1546 2.88084,0.3807c0.55766,0.13387 1.04352,0.47687 1.57445,0.6937c1.18636,0.48451 2.45988,0.76871 3.56566,1.44454c1.33251,0.81441 2.49245,1.96587 3.68648,2.9116c1.76091,1.39473 3.53587,2.87143 5.16886,4.46151c0.41523,0.40431 0.89584,0.77914 1.16034,1.29482c0.40911,0.79758 0.56894,3.52972 0.01622,4.25103c-1.01673,1.32684 -1.97648,0.90594 -3.26639,0.7609c-1.08562,-0.58566 -1.93207,-1.48005 -2.98331,-2.05716c-0.31295,-0.17179 -0.67995,-0.21982 -1.01101,-0.35341c-0.14671,-0.05921 -0.2949,-0.11779 -0.43863,-0.18471c0.10865,0.27395 0.18757,0.59897 0.23815,0.81423c0.27856,1.18545 0.30046,2.52326 0.44099,3.73414c0.24744,2.13206 0.2139,4.17984 0.4622,6.31931c0.13292,1.14529 0.6968,3.08922 0.46211,4.22218c-0.00842,0.04064 -0.01726,0.08117 -0.02651,0.12159l0.01614,0.00236l-0.28891,1.97763c-0.05574,0.45185 -0.41396,0.82412 -0.88626,0.87893c-0.36504,0.04236 -0.70717,-0.11547 -0.91657,-0.38653l-0.78227,-0.97904l0.00931,-0.00744l-0.03419,-0.02502c-0.34481,-0.51126 -0.75673,-0.98318 -1.03443,-1.5338c-0.18483,-0.36648 0.04785,-1.04036 -0.33646,-1.18447c-0.31007,-0.11627 0.04485,0.8976 -0.28169,0.95268c-0.71276,0.12023 -1.48169,-0.17244 -2.0972,-0.55141c-1.03615,-0.63796 -1.76851,-2.80801 -2.33725,-3.79883c-0.06196,-0.10793 -0.13246,-0.21923 -0.20533,-0.33295l-0.02042,0.38016c-0.01751,0.49038 -0.39081,0.90784 -0.89318,0.96614c-0.40058,0.04649 -0.77358,-0.14811 -0.97387,-0.46885l-1.09385,-1.67254c-0.72229,-1.10481 -1.30324,-2.43 -2.08044,-3.48377c-0.20179,-0.2736 -1.28907,-1.4583 -1.97356,-2.19998l-0.43794,0.11522c-0.74166,0.18056 -1.47266,0.40639 -2.19389,0.6564c-6.37854,1.40271 -12.65822,3.20578 -18.96917,4.91552c-2.57314,0.6971 -5.11064,1.94861 -7.74873,2.26594c-1.62886,0.18904 -2.02791,3.43061 -3.64382,2.94597c-2.43499,-0.73029 -0.66345,-2.40675 -0.37967,-4.85322c0.2825,-2.43542 -0.93324,-5.6397 1.2668,-6.89031c-0.03135,-0.05538 -0.06021,-0.11694 -0.08599,-0.18531c-0.35635,-0.94524 0.58889,-1.30159 0.58889,-1.30159c0.02611,-0.00955 0.05203,-0.01926 0.07778,-0.02911c0.08935,-0.33682 0.35019,-0.5581 0.35019,-0.5581z" fill="#cb5800" stroke="none" stroke-width="0.5" stroke-linecap="butt"/></g><path d="M378.27312,181.40604c-0.19663,19.33735 -62.26302,34.38386 -138.62915,33.60734c-76.36613,-0.77652 -138.11372,-17.08204 -137.91708,-36.41939c0.19663,-19.33734 62.26302,-34.38386 138.62915,-33.60734c76.36613,0.77652 138.11372,17.08204 137.91709,36.41939z" fill="#ffe266" stroke="none" stroke-width="0" stroke-linecap="butt"/><g stroke="none" stroke-width="1" stroke-linecap="butt" font-family="Sans Serif" font-weight="normal" font-size="40" text-anchor="start"><text transform="translate(120.60294,192.89891) rotate(-0.30929) scale(1.03371,1.03371)" font-size="40" xml:space="preserve" fill="#ff5454" fill-rule="nonzero" stroke="none" stroke-width="1" stroke-linecap="butt" stroke-linejoin="miter" stroke-miterlimit="10" stroke-dasharray="" stroke-dashoffset="0" font-family="Sans Serif" font-weight="normal" text-anchor="start" style="mix-blend-mode: normal"><tspan x="0" dy="0">WAHOOOO!</tspan></text><text transform="translate(123.14575,193.18585) rotate(-0.30901) scale(1.03371,1.03371)" font-size="40" xml:space="preserve" fill="#ff6666" fill-rule="nonzero" stroke="none" stroke-width="1" stroke-linecap="butt" stroke-linejoin="miter" stroke-miterlimit="10" stroke-dasharray="" stroke-dashoffset="0" font-family="Sans Serif" font-weight="normal" text-anchor="start" style="mix-blend-mode: normal"><tspan x="0" dy="0">WAHOOOO!</tspan></text></g><path d="M212.02574,67.8543l11.13424,7.90171l-12.93008,2.87336" fill="none" stroke="#936d3b" stroke-width="2" stroke-linecap="round"/><path d="M257.4971,79.31934l-12.93007,-2.87336l11.13423,-7.90172" data-paper-data="{&quot;index&quot;:null}" fill="none" stroke="#936d3b" stroke-width="2" stroke-linecap="round"/><g><g data-paper-data="{&quot;index&quot;:null}" fill="#97ff66" stroke="#000000" stroke-width="2" stroke-linecap="butt"><path d="M503.42657,52.26463l-5.41398,-5.81411l36.67354,-34.14967l5.41398,5.8141z"/><path d="M533.67325,9.78495c3.97447,-3.70096 9.06522,-4.69428 11.37046,-2.21864c2.30525,2.47562 0.95209,7.48274 -3.02239,11.1837c-3.97448,3.70095 -9.06522,4.69428 -11.37048,2.21864c-2.30525,-2.47562 -0.95208,-7.48274 3.02239,-11.1837z"/></g><g data-paper-data="{&quot;index&quot;:null}" fill="#97ff66" stroke="#000000" stroke-width="2" stroke-linecap="butt"><path d="M475.0781,117.23945l5.40837,-37.86571l9.15707,1.30791l-5.40837,37.86571z"/><path d="M476.16341,112.5481c2.32503,-2.36111 6.92143,-1.60504 10.26635,1.68877c3.34492,3.29381 4.1717,7.87801 1.84666,10.23914c-2.32503,2.36112 -6.92143,1.60504 -10.26635,-1.68877c-3.34492,-3.29381 -4.1717,-7.87801 -1.84666,-10.23914z"/></g><g stroke="#000000" stroke-width="2" stroke-linecap="butt"><path d="M398.20333,11.28923c0,0 24.57814,22.5246 34.75291,29.09647c6.87536,4.44079 20.37736,6.51211 20.37736,6.51211l-1.18081,31.65363c0,0 -19.56617,-15.17063 -27.79424,-25.42907c-9.55574,-11.91375 -26.15522,-41.83314 -26.15522,-41.83314z" fill="#97ff66"/><path d="M433.86542,41.60595l10.86211,-7.27456l-0.09497,12.75869z" fill="#efff66"/><path d="M419.13523,30.86687l12.13677,-4.85835l-2.74444,12.4604z" fill="#efff66"/><path d="M403.90149,14.49534l12.66063,-3.25778l-4.32353,12.00419z" fill="#efff66"/></g><g fill="#97ff66" stroke="#000000" stroke-width="2" stroke-linecap="butt"><path d="M450.91849,112.52602l5.40837,-37.86571l9.15707,1.30791l-5.40837,37.86571z"/><path d="M455.70774,118.33909c-4.13327,2.22569 -8.75756,1.66478 -10.32862,-1.25281c-1.57107,-2.9176 0.50599,-7.08706 4.63926,-9.31275c4.13327,-2.22569 8.75756,-1.66478 10.32862,1.25281c1.57107,2.9176 -0.50599,7.08706 -4.63926,9.31275z"/></g><g fill="#97ff66" stroke="#000000" stroke-width="2" stroke-linecap="butt"><path d="M440.53362,66.18947l-7.17177,-3.41769l21.55771,-45.2373l7.17177,3.41769z"/><path d="M440.41738,56.31939c3.05372,1.45524 3.6353,6.60927 1.299,11.51185c-2.3363,4.90257 -6.7058,7.69718 -9.75951,6.24194c-3.05372,-1.45524 -3.6353,-6.60927 -1.299,-11.51185c2.3363,-4.90257 6.7058,-7.69718 9.75951,-6.24194z"/></g><g stroke-linecap="butt"><path d="M446.27379,79.81097l9.29837,-65.10083l51.6072,7.37107l-9.29837,65.10083z" fill="#97ff66" stroke="#000000" stroke-width="2"/><path d="M454.55797,28.57575l1.89349,-13.2569l49.71336,7.10057l-1.89349,13.2569z" fill="#79cd52" stroke="none" stroke-width="0"/></g><path d="M531.34196,-5.02494c-3.01585,21.11492 -26.28728,35.25727 -51.97819,31.58783c-25.69091,-3.66944 -44.07268,-23.76113 -41.05683,-44.87605c3.01585,-21.11492 26.28727,-35.25726 51.97818,-31.58782c25.69091,3.66944 44.07268,23.76113 41.05683,44.87605z" fill="#97ff66" stroke="#000000" stroke-width="2" stroke-linecap="butt"/><path d="M459.51124,-14.55987c-0.34547,2.41874 -2.5863,4.09946 -5.00504,3.75399c-2.41874,-0.34547 -4.09946,-2.5863 -3.75399,-5.00504c0.34547,-2.41874 2.5863,-4.09946 5.00504,-3.75399c2.41874,0.34547 4.09946,2.5863 3.75399,5.00504z" fill="#000000" stroke="none" stroke-width="NaN" stroke-linecap="butt"/><path d="M520.50155,-5.38752c-0.34547,2.41874 -2.5863,4.09946 -5.00504,3.75399c-2.41874,-0.34547 -4.09945,-2.58631 -3.75399,-5.00504c0.34547,-2.41874 2.5863,-4.09945 5.00504,-3.75398c2.41874,0.34547 4.09946,2.5863 3.75399,5.00503z" fill="#000000" stroke="none" stroke-width="NaN" stroke-linecap="butt"/><g fill="#000000" stroke="none" stroke-linecap="butt"><path d="M481.49446,-0.57353c-0.83943,1.20006 -1.87085,1.92744 -2.30373,1.62464c-0.43288,-0.3028 -0.10331,-1.52111 0.73612,-2.72117c0.83943,-1.20006 1.87084,-1.92744 2.30372,-1.62463c0.43288,0.3028 0.10332,1.52111 -0.73611,2.72117z" stroke-width="NaN"/><path d="M483.60119,-3.11018c0.50034,-0.16951 1.2869,0.81752 1.7568,2.20459c0.46991,1.38707 0.44523,2.64893 -0.05512,2.81843c-0.50034,0.16951 -1.28689,-0.81753 -1.7568,-2.2046c-0.46991,-1.38707 -0.44523,-2.64893 0.05512,-2.81843z" data-paper-data="{&quot;index&quot;:null}" stroke-width="NaN"/></g><path d="M509.11185,16.29127c0,0 -21.77482,7.48232 -31.17203,6.07613c-8.6773,-1.29846 -23.22383,-14.21589 -23.22383,-14.21589z" fill="#b50000" stroke="#000000" stroke-width="1.2" stroke-linecap="round"/><path d="M488.23104,84.85014l-30.64378,-4.32363c0,0 -9.24113,-51.03172 21.55852,-46.63259c30.79965,4.39912 9.08526,50.95622 9.08526,50.95622z" fill="#efff66" stroke="#000000" stroke-width="0" stroke-linecap="butt"/></g><g><g data-paper-data="{&quot;index&quot;:null}" stroke="#000000" stroke-linecap="round"><path d="M-56.87979,228.82811l15.86619,32.31759l-43.49052,0.43851z" fill="#b2b2b2" stroke-width="2"/><path d="M-54.87758,235.01852l9.91233,20.19027l-27.17051,0.27396z" fill="#ffa7fd" stroke-width="0"/></g><g stroke="#000000" stroke-linecap="round"><path d="M20.22776,309.92884l-29.01917,-32.39606l34.55834,-10.09374z" fill="#b2b2b2" stroke-width="2"/><path d="M16.38637,296.68318l-18.1296,-20.2393l21.59017,-6.30602z" fill="#ffa7fd" stroke-width="0"/></g><g fill="#b2b2b2" stroke="#000000" stroke-width="2" stroke-linecap="butt"><path d="M32.75657,117.41034l-15.4263,35.00131l-8.46437,-3.73054l15.4263,-35.00131z"/><path d="M32.35975,118.87646c-1.55016,2.92875 -6.17031,3.52274 -10.31939,1.32666c-4.14908,-2.19608 -6.25592,-6.35056 -4.70575,-9.27933c1.55016,-2.92877 6.17031,-3.52274 10.31939,-1.32666c4.14908,2.19608 6.25592,6.35056 4.70575,9.27933z"/></g><g fill="#b2b2b2" stroke="#000000" stroke-width="2" stroke-linecap="butt"><path d="M54.74784,128.46869l-15.4263,35.00131l-8.46437,-3.73054l15.4263,-35.00131z"/><path d="M55.94886,122.94995c4.33474,1.80214 6.8175,5.74352 5.5454,8.80331c-1.2721,3.05981 -5.81732,4.07937 -10.15206,2.27725c-4.33474,-1.80214 -6.8175,-5.74352 -5.5454,-8.80332c1.2721,-3.05981 5.81732,-4.07937 10.15206,-2.27724z"/></g><g stroke="#000000" stroke-width="2"><path d="M49.95121,205.87325c-6.66332,0.92083 -3.35422,-10.27617 -4.98895,-22.10545c-1.63474,-11.82927 -7.59427,-19.8113 -0.93095,-20.73213c6.66332,-0.92083 10.50596,8.0445 12.14069,19.87376c1.63474,11.82927 0.44253,22.04298 -6.22079,22.96381z" data-paper-data="{&quot;index&quot;:null}" fill="#b2b2b2" stroke-linecap="butt"/><g><path d="M44.24421,216.50713c-0.1209,-4.33769 0.868,-7.88439 2.20874,-7.92175c1.34074,-0.03736 2.52562,3.44874 2.64651,7.78644c0.1209,4.33769 -0.86799,7.88439 -2.20873,7.92176c-1.34074,0.03736 -2.52563,-3.44874 -2.64652,-7.78644z" fill="#d3d3d3" stroke-linecap="butt"/><path d="M52.51476,215.84789c-0.1209,-4.33769 0.868,-7.88438 2.20874,-7.92174c1.34074,-0.03736 2.52563,3.44874 2.64652,7.78644c0.1209,4.33769 -0.868,7.88438 -2.20874,7.92174c-1.34074,0.03736 -2.52563,-3.44874 -2.64652,-7.78644z" fill="#d3d3d3" stroke-linecap="butt"/><path d="M61.96353,214.51629l-22.56115,1.31007c0,0 1.50339,-16.06837 10.20679,-16.57375c8.70339,-0.50538 12.35436,15.26369 12.35436,15.26369z" fill="#838383" stroke-linecap="round"/></g></g><g data-paper-data="{&quot;index&quot;:null}" stroke="#000000" stroke-width="2" stroke-linecap="butt"><path d="M-15.57373,180.2689l2.32753,7.59589l-47.91249,14.68133l-2.32753,-7.5959z" fill="#dcdcdc"/><path d="M-61.34757,205.25167c-5.19249,1.59109 -10.20526,0.25898 -11.1963,-2.97533c-0.99106,-3.2343 2.41489,-7.14606 7.60738,-8.73715c5.19249,-1.59108 10.20526,-0.25898 11.19632,2.97533c0.99106,3.2343 -2.41489,7.14606 -7.60738,8.73715z" fill="#b2b2b2"/></g><g stroke="#000000" stroke-width="2" stroke-linecap="butt"><path d="M45.74008,245.65641l-7.49864,2.62398l-16.55129,-47.29908l7.49864,-2.62398z" fill="#dcdcdc"/><path d="M38.70686,238.73067c3.19289,-1.11728 7.23537,2.13243 9.02912,7.25845c1.79374,5.12601 0.65949,10.18722 -2.53341,11.3045c-3.19289,1.11728 -7.23537,-2.13243 -9.02912,-7.25845c-1.79374,-5.12601 -0.65949,-10.18722 2.53341,-11.3045z" fill="#b2b2b2"/></g><g stroke-linecap="butt"><path d="M50.39161,161.22339l-26.52175,60.17619l-47.70331,-21.02451l26.52175,-60.17619z" fill="#dcdcdc" stroke="#000000" stroke-width="2"/><path d="M28.58825,208.32211l-5.40079,12.25406l-45.95273,-20.25297l5.40079,-12.25406z" fill="#c4c4c4" stroke="none" stroke-width="0"/></g><path d="M-54.41456,219.95494c8.60211,-19.51766 34.82664,-26.85519 58.57413,-16.38884c23.74749,10.46635 36.02524,34.77318 27.42313,54.29084c-8.60211,19.51766 -34.82664,26.85518 -58.57413,16.38883c-23.74749,-10.46635 -36.02524,-34.77318 -27.42313,-54.29084z" fill="#b2b2b2" stroke="#000000" stroke-width="2" stroke-linecap="butt"/><path d="M4.75337,244.46775c0.98538,-2.23577 3.59664,-3.24941 5.83241,-2.26403c2.23577,0.98538 3.24941,3.59664 2.26403,5.83241c-0.98538,2.23577 -3.59664,3.24941 -5.83241,2.26403c-2.23577,-0.98538 -3.24941,-3.59664 -2.26403,-5.83241z" fill="#000000" stroke="none" stroke-width="NaN" stroke-linecap="butt"/><path d="M-34.47374,227.30466c0.98538,-2.23577 3.59664,-3.24941 5.83241,-2.26403c2.23577,0.98538 3.24941,3.59665 2.26403,5.83241c-0.98538,2.23577 -3.59663,3.2494 -5.83241,2.26402c-2.23577,-0.98538 -3.24941,-3.59664 -2.26403,-5.8324z" fill="#000000" stroke="none" stroke-width="NaN" stroke-linecap="butt"/><path d="M-27.25673,205.42869c0,0 21.89112,-1.60436 30.43599,2.22989c8.16486,3.66374 19.74507,20.28736 19.74507,20.28736z" fill="#670000" stroke="#000000" stroke-width="2" stroke-linecap="round"/><path d="M-7.97504,224.43029c0.4991,-0.4059 1.05792,-0.78583 1.63844,-1.04628c1.67234,-0.75029 3.60749,0.28292 3.93602,2.08617c0.0871,0.47812 0.11395,0.9845 0.10432,1.47839c-0.02996,1.53893 -1.45319,2.53597 -2.84347,1.87544c-0.66085,-0.31398 -1.85296,-0.88036 -2.8926,-1.3743c-0.4664,-0.22159 -1.09042,-0.84282 -0.99744,-1.45107c0.12051,-0.78831 1.05471,-1.56834 1.05471,-1.56834z" fill="#000000" stroke="#000000" stroke-width="0.5" stroke-linecap="round"/><g fill="none" stroke="#00b1ff" stroke-width="3"><path d="M28.55558,246.12558l-6.39522,14.51034l-24.53738,-10.81448l6.39522,-14.51034z" stroke-linecap="butt"/><path d="M-18.71275,225.29278l-6.39522,14.51035l-24.53739,-10.81449l6.39522,-14.51035z" stroke-linecap="butt"/><path d="M-20.63265,232.09633l21.07505,9.28851" stroke-linecap="round"/><path d="M-49.4149,228.46576l-8.46873,2.19997" stroke-linecap="round"/><path d="M22.63428,260.37646l1.10026,7.19793" stroke-linecap="round"/></g></g><g stroke="#000000" stroke-width="0.5" stroke-linecap="butt"><path d="M456.67018,349.6808c22.7108,27.92377 44.17402,47.35052 36.47771,53.61005c-7.6963,6.25951 -25.91442,-16.53385 -48.62524,-44.45761c-22.7108,-27.92377 -41.31418,-50.40379 -33.61788,-56.6633c7.6963,-6.25951 23.05458,19.58709 45.76538,47.51087z" data-paper-data="{&quot;index&quot;:null}" fill="#ffc666"/><path d="M527.32453,363.06211c-5.35652,8.34998 -29.78177,-7.61385 -60.07723,-27.04843c-30.29546,-19.43458 -54.98886,-34.98043 -49.63232,-43.33042c5.35652,-8.34998 27.06865,10.79818 57.36411,30.23275c30.29546,19.43458 57.70197,31.79609 52.34543,40.14609z" fill="#ffc666"/><path d="M494.78176,304.64566c22.7108,27.92377 44.17402,47.35052 36.47772,53.61003c-7.6963,6.25951 -25.91441,-16.53384 -48.62522,-44.4576c-22.7108,-27.92377 -41.31419,-50.40378 -33.61788,-56.6633c7.6963,-6.25951 23.05458,19.58709 45.76538,47.51087z" data-paper-data="{&quot;index&quot;:null}" fill="#ffc666"/><path d="M565.24923,321.4563c-5.35652,8.34998 -29.78177,-7.61385 -60.07723,-27.04843c-30.29546,-19.43458 -54.98886,-34.98043 -49.63232,-43.33042c5.35652,-8.34998 27.06865,10.79818 57.36409,30.23277c30.29546,19.43458 57.70198,31.79611 52.34546,40.14609z" fill="#ffc666"/><path d="M565.59476,318.68884c-6.60958,7.39783 -28.20298,-12.2277 -55.04385,-36.20863c-26.84087,-23.98093 -48.76514,-43.23618 -42.15556,-50.634c6.60958,-7.39783 25.02042,14.94292 51.8613,38.92385c26.84087,23.98093 51.94768,40.52095 45.3381,47.91877z" fill="#ffea66"/><path d="M548.5534,340.46468c-6.60958,7.39783 -28.20298,-12.2277 -55.04385,-36.20863c-26.84087,-23.98093 -48.76515,-43.23616 -42.15556,-50.634c6.60958,-7.39783 25.02043,14.94291 51.86131,38.92384c26.84087,23.98093 51.94769,40.52096 45.3381,47.9188z" fill="#ffea66"/><path d="M531.16858,361.93367c-6.60958,7.39783 -28.20298,-12.2277 -55.04385,-36.20863c-26.84087,-23.98093 -48.76514,-43.23618 -42.15556,-50.634c6.60958,-7.39783 25.02043,14.94291 51.86131,38.92384c26.84087,23.98093 51.94769,40.52096 45.3381,47.9188z" fill="#ffea66"/><path d="M511.48933,383.20559c-6.60958,7.39783 -28.20298,-12.2277 -55.04385,-36.20863c-26.84087,-23.98093 -48.76514,-43.23618 -42.15556,-50.634c6.60958,-7.39783 25.02043,14.94291 51.86131,38.92384c26.84087,23.98093 51.94769,40.52096 45.3381,47.9188z" fill="#ffea66"/><path d="M491.7228,408.7229c-6.60958,7.39783 -28.20298,-12.2277 -55.04385,-36.20863c-26.84087,-23.98093 -48.76515,-43.23616 -42.15556,-50.634c6.60958,-7.39783 25.02043,14.94291 51.86131,38.92384c26.84087,23.98093 51.94769,40.52096 45.3381,47.9188z" fill="#ffea66"/><g><path d="M471.33065,312.3465c-8.38798,9.38832 -21.90313,10.99924 -30.18696,3.59808c-8.28381,-7.40115 -8.19937,-21.0117 0.18862,-30.40004c8.38798,-9.38832 21.90315,-10.99926 30.18697,-3.59809c8.28381,7.40115 8.19937,21.01173 -0.18862,30.40007z" fill="#ffffff"/><path d="M467.70544,310.36626c-4.98346,5.57778 -12.963,6.57957 -17.82284,2.23755c-4.85984,-4.34202 -4.75964,-12.38359 0.22382,-17.96136c4.98346,-5.57778 12.96301,-6.57955 17.82285,-2.23754c4.85984,4.34202 4.75963,12.38357 -0.22383,17.96135z" fill="#000000"/></g><g data-paper-data="{&quot;index&quot;:null}"><path d="M515.9575,322.3362c8.28381,7.40115 8.19936,21.01172 -0.18863,30.40005c-8.38798,9.38832 -21.90313,10.99924 -30.18694,3.59809c-8.28381,-7.40115 -8.19939,-21.01172 0.1886,-30.40005c8.38798,-9.38832 21.90315,-10.99926 30.18697,-3.59809z" fill="#ffffff"/><path d="M505.96783,327.0769c4.85984,4.34202 4.75964,12.38359 -0.22382,17.96136c-4.98346,5.57778 -12.96301,6.57955 -17.82285,2.23754c-4.85984,-4.34202 -4.75963,-12.38357 0.22383,-17.96135c4.98346,-5.57778 12.963,-6.57957 17.82284,-2.23755z" fill="#000000"/></g></g><path d="M16.64651,89.73851c2.43916,8.23868 1.85864,15.67476 -1.2966,16.6089c-3.15524,0.93414 -4.83386,-5.83308 -7.273,-14.07177c-2.43916,-8.23868 -4.71517,-14.82903 -1.55993,-15.76319c3.15524,-0.93414 7.6904,4.98738 10.12955,13.22606z" fill="#2b2b2b" stroke="#000000" stroke-width="2" stroke-linecap="butt"/><path d="M-65.59542,-49.70553c-1.41918,-4.44043 7.94655,-14.00747 21.26785,-18.26504c13.3213,-4.25757 25.55368,-1.59343 26.97287,2.84702c1.41918,4.44043 -9.43864,7.70798 -22.75995,11.96556c-13.3213,4.25757 -24.0616,7.89292 -25.48079,3.45247z" data-paper-data="{&quot;index&quot;:null}" fill="#2b2b2b" stroke="#000000" stroke-width="2" stroke-linecap="butt"/><path d="M16.36751,-60.7624c15.198,-0.8017 27.91656,6.096 28.4077,15.4065c0.49115,9.3105 -11.43113,17.50805 -26.62912,18.30977c-15.198,0.8017 -15.0512,-7.27187 -15.54235,-16.58237c-0.49115,-9.3105 -1.43423,-16.33218 13.76377,-17.1339z" fill="#2b2b2b" stroke="#000000" stroke-width="2" stroke-linecap="butt"/><path d="M19.31922,-41.12231c15.198,-0.8017 27.91656,6.096 28.4077,15.4065c0.49115,9.3105 -11.43113,17.50805 -26.62912,18.30977c-15.198,0.8017 -15.0512,-7.27187 -15.54235,-16.58237c-0.49115,-9.3105 -1.43423,-16.33218 13.76377,-17.1339z" fill="#2b2b2b" stroke="#000000" stroke-width="2" stroke-linecap="butt"/><path d="M25.89245,22.65975c15.198,-0.8017 27.91656,6.096 28.4077,15.4065c0.49115,9.3105 -11.43113,17.50805 -26.62912,18.30977c-15.198,0.8017 -15.0512,-7.27187 -15.54235,-16.58237c-0.49115,-9.3105 -1.43423,-16.33218 13.76377,-17.1339z" fill="#2b2b2b" stroke="#000000" stroke-width="2" stroke-linecap="butt"/><path d="M28.84415,42.29984c15.198,-0.8017 27.91656,6.096 28.4077,15.4065c0.49115,9.3105 -11.43113,17.50805 -26.62912,18.30977c-15.198,0.8017 -15.0512,-7.27187 -15.54235,-16.58237c-0.49115,-9.3105 -1.43423,-16.33218 13.76377,-17.1339z" fill="#2b2b2b" stroke="#000000" stroke-width="2" stroke-linecap="butt"/><path d="M-29.37345,-66.9732c35.79484,-5.3796 48.23216,26.93475 54.79364,70.59361c6.56148,43.65887 4.76241,82.12954 -31.03242,87.50913c-35.79484,5.3796 -70.13144,-25.65188 -76.69292,-69.31075c-6.56148,-43.65887 17.13686,-83.4124 52.9317,-88.792z" fill="#ffffff" stroke="#d0d0d0" stroke-width="2" stroke-linecap="butt"/><path d="M-32.55841,11.59673c13.98428,0.15383 25.32293,0.08544 25.27166,4.74688c-0.05127,4.66142 -10.96017,10.80348 -24.94446,10.64966c-13.98428,-0.15383 -25.74842,-6.54524 -25.69715,-11.20667c0.05127,-4.66142 11.38566,-4.34368 25.36996,-4.18988z" fill="#2b2b2b" stroke="#000000" stroke-width="2" stroke-linecap="butt"/><g stroke="none" stroke-linecap="butt"><path d="M-27.53599,-16.30571c4.70035,-0.70641 9.10541,2.67785 9.83899,7.55897c0.73358,4.88111 -2.48211,9.4107 -7.18245,10.11712c-4.70035,0.70641 -9.10539,-2.67786 -9.83897,-7.55897c-0.73358,-4.88111 2.48209,-9.4107 7.18243,-10.11711z" fill="#000000" stroke-width="NaN"/><path d="M-27.02604,-7.34468c2.079,-0.31245 3.97358,0.82651 4.23169,2.54393c0.25811,1.71743 -1.218,3.36297 -3.29699,3.67542c-2.079,0.31245 -3.97358,-0.82651 -4.23169,-2.54393c-0.25811,-1.71743 1.218,-3.36297 3.29699,-3.67542z" fill="#ffffff" stroke-width="0"/></g><g stroke="none" stroke-linecap="butt"><path d="M-34.93037,-61.05219c4.70035,-0.70641 9.10541,2.67785 9.83899,7.55897c0.73358,4.88111 -2.48211,9.4107 -7.18245,10.11712c-4.70035,0.70641 -9.10539,-2.67786 -9.83897,-7.55897c-0.73358,-4.88111 2.48209,-9.4107 7.18243,-10.11711z" fill="#000000" stroke-width="NaN"/><path d="M-34.42045,-52.09116c2.079,-0.31245 3.97358,0.82651 4.23169,2.54393c0.25811,1.71743 -1.218,3.36299 -3.29698,3.67544c-2.079,0.31245 -3.97358,-0.82653 -4.23169,-2.54395c-0.25811,-1.71743 1.218,-3.36297 3.29699,-3.67542z" fill="#ffffff" stroke-width="0"/></g><path d="M-19.96114,-33.85579c-0.19836,-1.52696 0.36203,-5.30801 0.36203,-5.30801c0,0 6.06477,1.6694 6.44293,4.58068c0.37817,2.91128 -5.13366,5.49846 -5.13366,5.49846c0,0 -1.43871,-2.98054 -1.67131,-4.77113z" fill="#000000" stroke="#000000" stroke-width="1" stroke-linecap="round"/><path d="M-6.56198,-48.24452c0,0 7.86874,0.61846 8.9705,4.00749c1.10179,3.38903 -5.23545,7.4814 -5.23545,7.4814c0,0 6.89061,1.605 7.20325,5.61199c0.31265,4.00701 -6.11906,8.28366 -6.11906,8.28366" fill="none" stroke="#000000" stroke-width="2" stroke-linecap="round"/></g></g></svg>
