<svg xmlns="http://www.w3.org/2000/svg" xmlns:xlink="http://www.w3.org/1999/xlink" version="1.1" width="719.66969" height="542.64158" viewBox="0,0,719.66969,542.64158"><defs><radialGradient cx="413.67659" cy="92.84653" r="25.97421" gradientUnits="userSpaceOnUse" id="color-1"><stop offset="0" stop-color="#ffffff"/><stop offset="1" stop-color="#dbdbdb"/></radialGradient><linearGradient x1="-61.41616" y1="411.8397" x2="-61.41616" y2="429.96649" gradientUnits="userSpaceOnUse" id="color-2"><stop offset="0" stop-color="#ffc141"/><stop offset="1" stop-color="#ffd38c"/></linearGradient><linearGradient x1="-16.7846" y1="371.15936" x2="-16.7846" y2="424.67656" gradientUnits="userSpaceOnUse" id="color-3"><stop offset="0" stop-color="#ffc141"/><stop offset="1" stop-color="#ffd38c"/></linearGradient><linearGradient x1="-24.55322" y1="424.89236" x2="17.74263" y2="424.89236" gradientUnits="userSpaceOnUse" id="color-4"><stop offset="0" stop-color="#ffc141"/><stop offset="1" stop-color="#ffd38c"/></linearGradient><linearGradient x1="52.11097" y1="375.37411" x2="30.38848" y2="442.59639" gradientUnits="userSpaceOnUse" id="color-5"><stop offset="0" stop-color="#ffc141"/><stop offset="1" stop-color="#ffd38c"/></linearGradient><linearGradient x1="-20.09679" y1="359.73444" x2="16.45085" y2="441.96665" gradientUnits="userSpaceOnUse" id="color-6"><stop offset="0" stop-color="#ffc141"/><stop offset="1" stop-color="#ffd38c"/></linearGradient><linearGradient x1="3.59487" y1="378.90592" x2="39.22833" y2="439.90559" gradientUnits="userSpaceOnUse" id="color-7"><stop offset="0" stop-color="#ffc141"/><stop offset="1" stop-color="#ffd38c"/></linearGradient><linearGradient x1="-28.32669" y1="387.23905" x2="-28.32669" y2="440.75625" gradientUnits="userSpaceOnUse" id="color-8"><stop offset="0" stop-color="#ffc141"/><stop offset="1" stop-color="#ffd38c"/></linearGradient><linearGradient x1="-36.09533" y1="440.97205" x2="6.20054" y2="440.97205" gradientUnits="userSpaceOnUse" id="color-9"><stop offset="0" stop-color="#ffc141"/><stop offset="1" stop-color="#ffd38c"/></linearGradient><linearGradient x1="29.15806" y1="325.349" x2="29.15806" y2="381.69674" gradientUnits="userSpaceOnUse" id="color-10"><stop offset="0" stop-color="#ffc141"/><stop offset="1" stop-color="#ffd38c"/></linearGradient><linearGradient x1="4.68996" y1="356.59614" x2="4.68996" y2="363.50159" gradientUnits="userSpaceOnUse" id="color-11"><stop offset="0" stop-color="#ffc141"/><stop offset="1" stop-color="#ffd38c"/></linearGradient><linearGradient x1="258.05604" y1="395.24638" x2="241.72539" y2="408.62053" gradientUnits="userSpaceOnUse" id="color-12"><stop offset="0" stop-color="#ffab19"/><stop offset="1" stop-color="#ffc35b"/></linearGradient><linearGradient x1="283.34948" y1="390.72123" x2="276.16018" y2="431.23403" gradientUnits="userSpaceOnUse" id="color-13"><stop offset="0" stop-color="#ffab19"/><stop offset="1" stop-color="#ffc35b"/></linearGradient><linearGradient x1="273.26173" y1="413.66515" x2="266.3191" y2="452.78791" gradientUnits="userSpaceOnUse" id="color-14"><stop offset="0" stop-color="#ffab19"/><stop offset="1" stop-color="#ffc35b"/></linearGradient><linearGradient x1="262.76307" y1="411.91963" x2="255.82044" y2="451.0424" gradientUnits="userSpaceOnUse" id="color-15"><stop offset="0" stop-color="#ffab19"/><stop offset="1" stop-color="#ffc35b"/></linearGradient><linearGradient x1="270.8636" y1="380.51483" x2="263.8889" y2="419.8183" gradientUnits="userSpaceOnUse" id="color-16"><stop offset="0" stop-color="#ffab19"/><stop offset="1" stop-color="#ffc35b"/></linearGradient><linearGradient x1="273.76689" y1="388.86675" x2="268.83789" y2="416.64241" gradientUnits="userSpaceOnUse" id="color-17"><stop offset="0" stop-color="#ffffff"/><stop offset="1" stop-color="#cdcdcd"/></linearGradient><linearGradient x1="254.99673" y1="385.18366" x2="247.80742" y2="425.69646" gradientUnits="userSpaceOnUse" id="color-18"><stop offset="0" stop-color="#ffab19"/><stop offset="1" stop-color="#ffc35b"/></linearGradient><linearGradient x1="295.95064" y1="331.1712" x2="291.17565" y2="358.07896" gradientUnits="userSpaceOnUse" id="color-19"><stop offset="0" stop-color="#ffc35b"/><stop offset="1" stop-color="#ffab19"/></linearGradient><linearGradient x1="294.57087" y1="336.31044" x2="291.86304" y2="351.56943" gradientUnits="userSpaceOnUse" id="color-20"><stop offset="0" stop-color="#ffffff"/><stop offset="1" stop-color="#bfbfbf"/></linearGradient><linearGradient x1="279.97644" y1="337.49781" x2="271.28488" y2="386.47598" gradientUnits="userSpaceOnUse" id="color-21"><stop offset="0" stop-color="#ffab19"/><stop offset="1" stop-color="#ffc35b"/></linearGradient><linearGradient x1="266.71794" y1="326.10119" x2="261.94296" y2="353.00895" gradientUnits="userSpaceOnUse" id="color-22"><stop offset="0" stop-color="#ffc35b"/><stop offset="1" stop-color="#ffab19"/></linearGradient><linearGradient x1="266.24517" y1="331.40138" x2="263.53734" y2="346.66037" gradientUnits="userSpaceOnUse" id="color-23"><stop offset="0" stop-color="#ffffff"/><stop offset="1" stop-color="#bfbfbf"/></linearGradient></defs><g transform="translate(119.36237,88.5058)"><g data-paper-data="{&quot;isPaintingLayer&quot;:true}" fill-rule="nonzero" stroke-linejoin="miter" stroke-miterlimit="10" stroke-dasharray="" stroke-dashoffset="0" style="mix-blend-mode: normal"><path d="M-119.36236,452.65063v-541.15642h719.66969v541.15642z" fill="#ffef85" stroke="none" stroke-width="NaN" stroke-linecap="butt"/><g><g><path d="M255.72608,233.37092l-10.54233,41.44733l-41.44733,-10.54233l10.54233,-41.44733z" fill="#ba6a2d" stroke="#29170a" stroke-width="6" stroke-linecap="butt"/><path d="M245.47535,238.40128l-6.08211,23.91192l-24.59512,-6.25589l6.08211,-23.91192z" fill="#985524" stroke="none" stroke-width="0" stroke-linecap="butt"/><path d="M244.32596,273.79184l-27.76356,-46.705" fill="none" stroke="#29170a" stroke-width="6" stroke-linecap="round"/><path d="M204.90125,263.40027l50.98986,-30.31068" fill="none" stroke="#29170a" stroke-width="6" stroke-linecap="round"/></g><path d="M236.89388,251.15041c4.81083,1.22366 7.7188,6.11557 6.49515,10.9264c-1.22366,4.81083 -6.11557,7.7188 -10.9264,6.49515c-4.81083,-1.22366 -7.7188,-6.11557 -6.49515,-10.9264c1.22366,-4.81083 6.11557,-7.7188 10.9264,-6.49515z" fill="#ffffff" stroke="none" stroke-width="0" stroke-linecap="butt"/><path d="M218.78765,246.9087c4.57501,1.16368 7.36961,5.70108 6.24192,10.13459c-1.12768,4.43351 -5.75062,7.08423 -10.32563,5.92056c-4.57501,-1.16368 -7.36961,-5.70108 -6.24192,-10.13459c1.12768,-4.43351 5.75062,-7.08423 10.32563,-5.92056z" fill="#ffffff" stroke="none" stroke-width="0" stroke-linecap="butt"/><path d="M238.0508,260.90083c-0.67181,2.64124 -3.35757,4.23777 -5.99881,3.56596c-2.64124,-0.67181 -4.23777,-3.35757 -3.56596,-5.99881c0.67181,-2.64124 2.32385,-2.31851 4.96509,-1.6467c2.64124,0.67181 5.2715,1.43831 4.59968,4.07955z" fill="#000000" stroke="none" stroke-width="0.5" stroke-linecap="butt"/><path d="M219.09801,254.62533c-0.67181,2.64124 -3.35757,4.23777 -5.99881,3.56596c-2.64124,-0.67181 -4.23777,-3.35757 -3.56596,-5.99881c0.67181,-2.64124 2.66247,-1.50498 5.30371,-0.83317c2.64124,0.67181 4.93287,0.62478 4.26106,3.26602z" fill="#000000" stroke="none" stroke-width="0.5" stroke-linecap="butt"/></g><g data-paper-data="{&quot;index&quot;:null}"><path d="M344.76479,248.67442l1.25799,2.76384l-23.24142,10.57851l-1.25799,-2.76384z" fill="#9c9b61" stroke="none" stroke-width="1" stroke-linecap="butt"/><path d="M370.03523,251.43911c-1.12189,2.61755 -2.86089,4.79272 -5.63546,4.15092c-1.04298,-0.24126 -5.20375,-2.58828 -5.20375,-2.58828l-22.2291,-5.59918l1.36873,-5.9171c0,0 8.11524,2.20049 15.22906,4.09552c4.46857,1.19037 8.54201,2.26019 9.96072,2.58835c0.9575,0.22149 3.31985,-0.08911 3.31985,-0.08911c0,0 3.90935,1.68039 3.18994,3.35887z" data-paper-data="{&quot;index&quot;:null}" fill="#fffb9f" stroke="#a4a366" stroke-width="1" stroke-linecap="butt"/><path d="M303.62827,231.85839c-8.41628,-0.69415 -9.20762,2.1553 -9.20762,2.1553c0,0 1.60642,-6.51403 10.02269,-5.81989c8.41628,0.69415 10.52529,-0.59775 10.18392,3.5414c-0.34138,4.13916 -2.58272,0.81731 -10.99898,0.12318z" fill="#fffb9f" stroke="#a4a366" stroke-width="1" stroke-linecap="butt"/><path d="M331.45099,219.84674l15.95354,35.05056l-22.99016,10.46415l-15.95354,-35.05056z" fill="#fffb9f" stroke="#a4a366" stroke-width="1" stroke-linecap="butt"/><path d="M335.23359,252.75308c-5.2542,2.39149 -10.88853,-2.64863 -14.42552,-10.41954c-3.53699,-7.77091 -3.63725,-15.32992 1.61695,-17.72141c5.25419,-2.39148 11.26161,2.47884 14.7986,10.24975c3.53699,7.77091 3.26417,15.49972 -1.99002,17.89121z" fill="#d3d183" stroke="none" stroke-width="1" stroke-linecap="butt"/><path d="M309.77427,227.4989c1.7696,-0.45098 4.11929,2.21978 4.11929,2.21978c0,0 1.95092,-1.71122 2.60441,-0.27548c0.44347,0.97433 1.11416,5.7041 1.11416,5.7041l9.08916,21.0445l-5.52769,2.51597l-12.1224,-26.63341c0,0 -1.04653,-4.12449 0.72306,-4.57546z" fill="#fffb9f" stroke="#a4a366" stroke-width="1" stroke-linecap="butt"/><path d="M372.8371,265.52594c-0.91472,7.37613 -7.45179,12.63694 -14.60096,11.75038c-7.14917,-0.88657 5.35419,-13.45342 5.35419,-13.45342c0,0 -9.19087,-14.14446 -2.0417,-13.25789c7.14917,0.88657 12.20319,7.58481 11.28848,14.96094z" data-paper-data="{&quot;index&quot;:null}" fill="#fffb9f" stroke="#a4a366" stroke-width="1" stroke-linecap="butt"/><path d="M365.36823,262.43048c4.99934,10.98376 -2.54517,22.99049 -15.54261,28.90638c-12.99745,5.91589 -26.52597,3.5007 -31.52531,-7.48305c-4.99934,-10.98375 2.12997,-22.94657 15.12741,-28.86246c12.99745,-5.91589 26.94116,-3.54462 31.9405,7.43913z" fill="#fffb9f" stroke="#a4a366" stroke-width="1" stroke-linecap="butt"/><path d="M342.2984,264.22873c0,0 -0.36663,-2.65058 0.79668,-3.20841c1.16331,-0.55784 3.23083,1.27712 3.23083,1.27712c0,0 -1.25903,1.11198 -1.86919,1.40456c-0.7155,0.3431 -2.15831,0.52672 -2.15831,0.52672z" fill="#000000" stroke="#000000" stroke-width="1" stroke-linecap="round"/><path d="M319.53963,291.90792c-6.16304,-4.15463 -7.8948,-12.36502 -3.868,-18.33842c4.0268,-5.9734 8.65674,10.24701 8.65674,10.24701c0,0 17.68839,-1.17515 13.66157,4.79825c-4.0268,5.9734 -12.28729,7.44781 -18.45032,3.29317z" fill="#fffb9f" stroke="#a4a366" stroke-width="1" stroke-linecap="butt"/><g stroke="#000000" stroke-linecap="round"><path d="M332.88223,274.98404l5.5923,3.80536l-6.21701,3.57687z" fill="#000000" stroke-width="1"/><path d="M341.09184,269.85553c0,0 2.44976,6.50485 -1.21303,8.34286c-3.6628,1.83802 -6.85678,-3.74016 -6.85678,-3.74016" fill="none" stroke-width="2"/></g><g data-paper-data="{&quot;index&quot;:null}" stroke="#000000" stroke-linecap="round"><path d="M366.66145,267.64662l-6.78043,2.33902l0.80326,-6.71635z" fill="#000000" stroke-width="1"/><path d="M359.70062,263.12057c0,0 2.10874,6.07212 -1.68291,7.62706c-3.79165,1.55493 -7.08796,-4.5646 -7.08796,-4.5646" fill="none" stroke-width="2"/></g><g stroke="#000000" stroke-width="1" stroke-linecap="round"><path d="M347.65332,256.84747l-16.60339,7.55716c0,0 -0.26916,-7.4997 4.91533,-9.85946c5.1845,-2.35976 11.68806,2.3023 11.68806,2.3023z" fill="#ffffff"/><path d="M335.40044,259.01259l-3.55977,1.69285" fill="none"/></g></g><g data-paper-data="{&quot;index&quot;:null}" stroke-width="1"><path d="M294.88104,132.36587c0,0 -4.01771,-8.49837 -3.5472,-12.93111c0.52165,-4.91451 10.22549,-19.08574 10.22549,-19.08574l2.16506,4.44676c0,0 -6.06132,10.50251 -6.41346,14.57212c-0.25155,2.90715 4.49891,7.55348 4.49891,7.55348c0,0 0.83094,4.55284 0.72147,5.58417c-0.16131,1.51971 -2.47828,0.54379 -2.47828,0.54379c0,0 -1.34251,3.17403 -3.10713,3.30103c-1.76462,0.127 -2.06485,-3.98449 -2.06485,-3.98449z" data-paper-data="{&quot;index&quot;:null}" fill="#cbcbcb" stroke="#909090" stroke-linecap="butt"/><path d="M299.07876,92.74935c-0.46571,4.38746 0.85718,13.66342 0.85718,13.66342c0,0 -3.84857,11.23053 -7.51016,10.84187c-0.96551,-0.10248 -6.38334,1.22287 -6.38334,1.22287l-2.0474,-9.29825c0,0 0.92434,-2.65031 0.733,-3.77494c-0.32145,-1.88933 -1.41332,-5.18736 -1.41332,-5.18736c0,0 2.15935,-3.35352 2.81526,-4.75881c0.80959,-1.73459 -0.91191,-3.00406 -0.78847,-4.16695c0.45404,-4.27752 0.24012,-12.73577 0.24012,-12.73577c0,0 2.58734,-1.85115 5.20796,-4.72911c2.54724,-2.79736 5.10278,-6.62668 6.92873,-6.43286c1.09153,0.11586 1.1006,2.5589 2.35224,3.40438c0.73533,0.49673 3.71939,1.68369 3.71939,1.68369c0,0 -2.27434,0.74819 -3.21495,4.56932c-0.82423,3.34831 -0.88919,7.4792 -1.22542,10.87548c-0.04773,0.48203 1.7648,2.33624 1.7648,2.33624c0,0 -1.91548,1.35503 -2.03561,2.48677z" data-paper-data="{&quot;index&quot;:null}" fill="#cbcbcb" stroke="#909090" stroke-linecap="butt"/><path d="M312.12457,128.89613c2.04581,-2.89508 4.11862,4.48234 10.00531,8.64216c0.97722,0.69056 3.39359,2.09847 5.27057,1.89653c1.78344,-0.19188 3.93721,-1.68195 3.93721,-1.68195c0,0 -0.43131,3.16072 0.1955,4.10738c0.49462,0.74704 2.51923,1.23636 1.90901,2.0999c-1.55794,2.2047 -4.78716,1.50196 -9.52379,-0.03165c-0.62687,-0.20296 -3.86876,1.8121 -3.86876,1.8121c0,0 -0.15999,-3.49769 -0.97051,-4.07044c-5.88669,-4.15981 -9.00033,-9.87895 -6.95452,-12.77405z" fill="#cbcbcb" stroke="#909090" stroke-linecap="butt"/><path d="M301.70004,134.66529l-3.6103,1.49927l-2.10159,-2.2402c0,0 0.66826,-2.39128 0.71556,-5.07441c0.02721,-1.54328 -0.49919,-4.56543 -0.49919,-4.56543c0,0 0.8339,-1.4327 0.95881,-2.45051c1.02875,-8.38295 2.76288,-25.01027 2.76288,-25.01027l24.33482,2.58303c0,0 -1.72243,16.4205 -2.44808,24.70884c-0.08187,0.93502 0.50449,2.47002 0.50449,2.47002c0,0 -0.88224,1.6702 -1.0243,2.50865c-0.62139,3.66774 -0.97018,7.41312 -0.97018,7.41312z" fill="#cbcbcb" stroke="#909090" stroke-linecap="butt"/><path d="M309.02718,104.60323c5.56152,0.59033 7.78262,7.56923 6.90953,15.79465c-0.87309,8.22542 -4.50975,14.58255 -10.07126,13.99222c-5.56152,-0.59033 -8.17753,-7.61115 -7.30444,-15.83657c0.87309,-8.22542 4.90466,-14.54063 10.46617,-13.9503z" fill="#a4a4a4" stroke="none" stroke-linecap="butt"/><path d="M317.21787,141.88958c-1.69864,-0.49461 -2.34492,-3.87974 -2.34492,-3.87974c0,0 -2.47021,0.46778 -2.3089,-1.05193c0.10947,-1.03133 1.87765,-5.30828 1.87765,-5.30828c0,0 4.97093,-4.31053 5.26247,-6.6273c0.50716,-4.03021 -2.48964,-15.4072 -2.48964,-15.4072l2.66076,-4.63735c0,0 6.30114,15.67859 5.79527,20.44442c-0.49115,4.62714 -5.59738,13.00515 -5.59738,13.00515c0,0 -1.15666,3.95685 -2.8553,3.46224z" fill="#cbcbcb" stroke="#909090" stroke-linecap="butt"/><path d="M299.06624,103.31579l0.31053,-2.92551l24.60077,2.61126l-0.31053,2.92551z" fill="#797979" stroke="none" stroke-linecap="butt"/><path d="M288.6436,81.69625c1.23407,-11.62619 13.43911,-17.93229 27.19677,-16.47198c13.75766,1.46031 23.85816,10.13407 22.6241,21.76024c-1.23407,11.62619 -13.07104,18.1 -26.82869,16.63969c-13.75764,-1.46031 -24.22624,-10.30178 -22.99217,-21.92794z" fill="#cbcbcb" stroke="#909090" stroke-linecap="butt"/><path d="M308.77979,91.55001c0,0 -0.99858,2.39227 -2.24389,2.28523c-1.24531,-0.10704 -2.06748,-2.65584 -2.06748,-2.65584c0,0 1.59791,-0.30825 2.25107,-0.2521c0.76593,0.06584 2.06029,0.62273 2.06029,0.62273z" fill="#000000" stroke="#000000" stroke-linecap="round"/><path d="M317.58502,96.66535c0,0 -3.42545,2.32627 -5.19329,2.47297c-1.76784,0.14671 -12.07723,-2.66257 -12.07723,-2.66257" fill="none" stroke="#000000" stroke-linecap="round"/><g stroke-linecap="butt"><path d="M317.82939,79.11459c3.71735,0.39458 6.41348,3.70421 6.02201,7.39228c-0.39147,3.68806 -3.72232,6.35797 -7.43965,5.96339c-3.71733,-0.39458 -6.41348,-3.70421 -6.02201,-7.39228c0.39147,-3.68806 3.72232,-6.35797 7.43965,-5.96339z" fill="#ffffff" stroke="#d7d7d7"/><path d="M315.17915,82.37059c1.69767,0.1802 2.91273,1.8449 2.71389,3.7182c-0.19884,1.87331 -1.73627,3.24583 -3.43396,3.06563c-1.69767,-0.1802 -2.91273,-1.8449 -2.71389,-3.7182c0.19884,-1.87331 1.73628,-3.24583 3.43396,-3.06563z" fill="#000000" stroke="none"/></g><path d="M325.3868,96.07975c0.12013,-1.13173 -1.46821,-2.85868 -1.46821,-2.85868c0,0 2.16139,-1.4324 2.21591,-1.91371c0.38422,-3.39118 1.18788,-7.44367 1.08493,-10.89039c-0.1175,-3.93347 -2.1841,-5.1424 -2.1841,-5.1424c0,0 3.16675,-0.5341 3.98996,-0.86537c1.40124,-0.56391 1.92296,-2.95059 3.01449,-2.83473c1.82595,0.19382 3.52069,4.47429 5.42392,7.74404c1.95808,3.36396 4.09916,5.717 4.09916,5.717c0,0 -1.98475,8.22487 -2.43879,12.50239c-0.12344,1.1629 -2.07308,2.04268 -1.64565,3.90857c0.34628,1.51167 1.75353,5.24376 1.75353,5.24376c0,0 -1.75988,2.99532 -2.47078,4.77508c-0.42316,1.05938 -0.0758,3.84468 -0.0758,3.84468l-3.95372,8.66127c0,0 -5.01888,-2.43316 -5.98439,-2.53564c-3.66159,-0.38866 -5.06682,-12.17686 -5.06682,-12.17686c0,0 3.24067,-8.79156 3.70638,-13.17901z" fill="#cbcbcb" stroke="#909090" stroke-linecap="butt"/><g stroke-linecap="butt"><path d="M303.80298,83.73332c-0.39147,3.68806 -3.72232,6.35797 -7.43965,5.96339c-3.71733,-0.39458 -6.41348,-3.70421 -6.02201,-7.39228c0.39147,-3.68806 3.72231,-6.35797 7.43965,-5.96339c3.71733,0.39458 6.41348,3.70421 6.02201,7.39228z" fill="#ffffff" stroke="#d7d7d7"/><path d="M302.40251,83.79908c-0.19884,1.87331 -1.73628,3.24582 -3.43396,3.06562c-1.69767,-0.1802 -2.91273,-1.84489 -2.71389,-3.71819c0.19884,-1.87331 1.73628,-3.24583 3.43396,-3.06563c1.69767,0.1802 2.91273,1.8449 2.71389,3.7182z" fill="#000000" stroke="none"/></g><path d="M322.77013,77.34095l-9.55177,-1.22905" fill="none" stroke="#909090" stroke-linecap="round"/><path d="M293.06708,74.40327l8.1801,0.97586" fill="none" stroke="#909090" stroke-linecap="round"/></g><path d="M130.97117,138.44037c-1.84612,0.15834 -3.75585,-2.90437 -3.75585,-2.90437c0,0 -2.23637,1.38984 -2.65272,-0.15562c-0.28254,-1.04879 -0.17051,-5.89452 -0.17051,-5.89452l-5.61275,-22.57165l5.95011,-1.60297l7.7234,28.66873c0,0 0.36444,4.30208 -1.48169,4.46042z" data-paper-data="{&quot;index&quot;:null}" fill="#b9894a" stroke="#97703c" stroke-width="1" stroke-linecap="butt"/><path d="M116.5948,69.61504c5.46507,-1.4723 12.95334,8.68506 16.72551,22.68708c3.77217,14.00203 2.39979,26.54645 -3.06528,28.01874c-5.46507,1.4723 -7.13253,-10.25318 -10.90469,-24.25521c-3.77217,-14.00202 -8.22061,-24.9783 -2.75554,-26.4506z" data-paper-data="{&quot;index&quot;:null}" fill="#b9894a" stroke="#97703c" stroke-width="1" stroke-linecap="butt"/><path d="M110.43836,132.34991c2.59141,2.65872 0.30969,9.08558 -5.09638,14.35478c-5.40607,5.26921 -11.8893,7.38542 -14.48072,4.7267c-2.59141,-2.65872 5.24068,-3.23052 10.64675,-8.49973c5.40607,-5.26921 6.33895,-13.24047 8.93035,-10.58176z" fill="#b9894a" stroke="#97703c" stroke-width="1" stroke-linecap="butt"/><path d="M105.05875,143.41959l-10.16429,-37.72913l24.74707,-6.66689l10.16429,37.72913z" fill="#b9894a" stroke="#97703c" stroke-width="1" stroke-linecap="butt"/><path d="M124.62104,121.27601c2.25347,8.36476 0.70019,16.05635 -4.95553,17.58c-5.65572,1.52365 -10.46102,-4.45491 -12.71451,-12.81967c-2.25347,-8.36476 -1.10179,-15.94815 4.55394,-17.47182c5.65572,-1.52365 10.86261,4.34671 13.1161,12.71148z" fill="#936d3b" stroke="none" stroke-width="1" stroke-linecap="butt"/><path d="M96.5793,112.33733l-0.80149,-2.97505l25.01752,-6.73976l0.80149,2.97505z" fill="#8d6939" stroke="none" stroke-width="1" stroke-linecap="butt"/><path d="M128.8283,81.52393c3.18517,11.82313 -6.19167,22.68709 -20.18238,26.45621c-13.99072,3.76912 -27.2973,-0.98388 -30.48247,-12.80702c-3.18517,-11.82313 5.83846,-22.45319 19.82918,-26.22231c13.99072,-3.76912 27.65051,0.74999 30.83568,12.57312z" fill="#b9894a" stroke="#97703c" stroke-width="1" stroke-linecap="butt"/><path d="M93.29194,102.40479c3.77217,14.00203 8.22061,24.9783 2.75554,26.4506c-5.46507,1.4723 -12.95334,-8.68506 -16.72551,-22.68708c-3.77217,-14.00202 -2.39979,-26.54645 3.06528,-28.01874c5.46507,-1.4723 7.13253,10.25319 10.90469,24.25521z" fill="#b9894a" stroke="#97703c" stroke-width="1" stroke-linecap="butt"/><g stroke-width="1" stroke-linecap="butt"><path d="M106.77349,88.15927c1.0104,3.75054 -1.23505,7.61655 -5.01536,8.63497c-3.78032,1.01842 -7.66394,-1.1964 -8.67435,-4.94694c-1.0104,-3.75054 1.23505,-7.61655 5.01536,-8.63497c3.78032,-1.01842 7.66394,1.1964 8.67435,4.94694z" fill="#ffffff" stroke="#d7d7d7"/><path d="M105.43026,88.75237c0.51322,1.90504 -0.47029,3.82642 -2.19674,4.29153c-1.72644,0.4651 -3.54204,-0.70219 -4.05526,-2.60723c-0.51322,-1.90504 0.47029,-3.82642 2.19672,-4.29152c1.72644,-0.4651 3.54204,0.70219 4.05526,2.60722z" fill="#000000" stroke="none"/></g><g data-paper-data="{&quot;index&quot;:null}" stroke-width="1" stroke-linecap="butt"><path d="M118.72078,77.92163c3.78032,-1.01842 7.66394,1.1964 8.67435,4.94694c1.0104,3.75054 -1.23505,7.61655 -5.01535,8.63498c-3.78032,1.01842 -7.66394,-1.1964 -8.67435,-4.94695c-1.0104,-3.75054 1.23505,-7.61655 5.01536,-8.63497z" fill="#ffffff" stroke="#d7d7d7"/><path d="M117.36153,82.10313c1.72644,-0.4651 3.54204,0.70219 4.05526,2.60723c0.51322,1.90504 -0.47029,3.82642 -2.19672,4.29152c-1.72644,0.4651 -3.54204,-0.70219 -4.05526,-2.60723c-0.51322,-1.90504 0.47029,-3.82642 2.19672,-4.29153z" fill="#000000" stroke="none"/></g><path d="M111.64672,94.03976c0.66638,-0.16531 2.36982,-0.1088 2.36982,-0.1088c0,0 -0.43198,2.77137 -1.70251,3.08654c-1.27053,0.31517 -2.69618,-1.99538 -2.69618,-1.99538c0,0 1.24742,-0.78851 2.02886,-0.98237z" fill="#000000" stroke="#000000" stroke-width="1" stroke-linecap="round"/><path d="M119.72575,100.02521c0,0 -4.79155,7.31375 -9.49266,7.42102c-4.70111,0.10727 -9.04299,-6.99809 -9.04299,-6.99809z" fill="#6a4f2b" stroke="#000000" stroke-width="1" stroke-linecap="round"/><path d="M75.27083,97.2059c1.3818,-1.23444 4.7473,0.06962 4.7473,0.06962c0,0 0.95501,-2.45377 2.21544,-1.4673c0.85536,0.66944 3.67346,4.61304 3.67346,4.61304l18.0343,14.68833l-3.79794,4.85273l-23.38133,-18.29919c0,0 -2.87304,-3.22278 -1.49124,-4.45723z" data-paper-data="{&quot;index&quot;:null}" fill="#b9894a" stroke="#97703c" stroke-width="1" stroke-linecap="butt"/><g stroke-width="4" stroke-linecap="butt"><path d="M400.75004,187.00005c0,39.7645 -74.35607,53.5 -168.38254,53.5c-94.02648,0 -172.11746,-13.7355 -172.11746,-53.5c0,-39.7645 76.22352,-61 170.25,-61c94.02648,0 170.25,21.2355 170.25,61z" fill="#fff700" stroke="#ccc500"/><text transform="translate(78.75678,204.15252) rotate(-5.4848) scale(1.25704,1.25704)" font-size="40" xml:space="preserve" fill="#ff0000" fill-rule="nonzero" stroke="#ff0000" stroke-width="4" stroke-linecap="butt" stroke-linejoin="miter" stroke-miterlimit="10" stroke-dasharray="" stroke-dashoffset="0" font-family="Handwriting" font-weight="normal" text-anchor="start" style="mix-blend-mode: normal"><tspan x="0" dy="0">W</tspan></text><text transform="translate(130.44529,211.28623) rotate(8.22876) scale(1.25704,1.25704)" font-size="40" xml:space="preserve" fill="#ff0000" fill-rule="nonzero" stroke="#ff0000" stroke-width="4" stroke-linecap="butt" stroke-linejoin="miter" stroke-miterlimit="10" stroke-dasharray="" stroke-dashoffset="0" font-family="Handwriting" font-weight="normal" text-anchor="start" style="mix-blend-mode: normal"><tspan x="0" dy="0">A</tspan></text><text transform="translate(171.75681,195.15252) rotate(-5.4848) scale(1.25704,1.25704)" font-size="40" xml:space="preserve" fill="#ff0000" fill-rule="nonzero" stroke="#ff0000" stroke-width="4" stroke-linecap="butt" stroke-linejoin="miter" stroke-miterlimit="10" stroke-dasharray="" stroke-dashoffset="0" font-family="Handwriting" font-weight="normal" text-anchor="start" style="mix-blend-mode: normal"><tspan x="0" dy="0">H</tspan></text><text transform="translate(207.9453,216.78623) rotate(8.22876) scale(1.25704,1.25704)" font-size="40" xml:space="preserve" fill="#ff0000" fill-rule="nonzero" stroke="#ff0000" stroke-width="4" stroke-linecap="butt" stroke-linejoin="miter" stroke-miterlimit="10" stroke-dasharray="" stroke-dashoffset="0" font-family="Handwriting" font-weight="normal" text-anchor="start" style="mix-blend-mode: normal"><tspan x="0" dy="0">O</tspan></text><text transform="translate(253.6679,197.73358) rotate(-10.09012) scale(1.25704,1.25704)" font-size="40" xml:space="preserve" fill="#ff0000" fill-rule="nonzero" stroke="#ff0000" stroke-width="4" stroke-linecap="butt" stroke-linejoin="miter" stroke-miterlimit="10" stroke-dasharray="" stroke-dashoffset="0" font-family="Handwriting" font-weight="normal" text-anchor="start" style="mix-blend-mode: normal"><tspan x="0" dy="0">O</tspan></text><text transform="translate(284.44527,218.28623) rotate(8.22876) scale(1.25704,1.25704)" font-size="40" xml:space="preserve" fill="#ff0000" fill-rule="nonzero" stroke="#ff0000" stroke-width="4" stroke-linecap="butt" stroke-linejoin="miter" stroke-miterlimit="10" stroke-dasharray="" stroke-dashoffset="0" font-family="Handwriting" font-weight="normal" text-anchor="start" style="mix-blend-mode: normal"><tspan x="0" dy="0">O</tspan></text><text transform="translate(327.16791,194.73359) rotate(-10.09012) scale(1.25704,1.25704)" font-size="40" xml:space="preserve" fill="#ff0000" fill-rule="nonzero" stroke="#ff0000" stroke-width="4" stroke-linecap="butt" stroke-linejoin="miter" stroke-miterlimit="10" stroke-dasharray="" stroke-dashoffset="0" font-family="Handwriting" font-weight="normal" text-anchor="start" style="mix-blend-mode: normal"><tspan x="0" dy="0">O</tspan></text><text transform="translate(369.28113,203.21932) rotate(7.85682) scale(1.25704,1.25704)" font-size="40" xml:space="preserve" fill="#ff0000" fill-rule="nonzero" stroke="#ff0000" stroke-width="4" stroke-linecap="butt" stroke-linejoin="miter" stroke-miterlimit="10" stroke-dasharray="" stroke-dashoffset="0" font-family="Handwriting" font-weight="normal" text-anchor="start" style="mix-blend-mode: normal"><tspan x="0" dy="0">!</tspan></text></g><path d="M258.38221,133.29119c0,3.99431 -18.21391,7.23234 -40.6819,7.23234c-22.46799,0 -40.6819,-3.23803 -40.6819,-7.23234c0,-3.99431 18.21391,-7.23234 40.6819,-7.23234c22.46799,0 40.6819,3.23803 40.6819,7.23234z" fill-opacity="0.50196" fill="#000000" stroke="none" stroke-width="0" stroke-linecap="butt"/><g stroke="#000000" stroke-width="1"><path d="M217.84487,119.88105c17.53995,2.8091 31.82681,2.90129 31.05257,7.73563c-0.77424,4.83433 -14.97381,2.4361 -32.51376,-0.37299c-17.53995,-2.8091 -31.77827,-4.96534 -31.00403,-9.79966c0.77424,-4.83433 14.92525,-0.37207 32.4652,2.43703z" data-paper-data="{&quot;index&quot;:null}" fill="#ffc666" stroke-linecap="butt"/><path d="M248.24763,101.5736c0.77424,4.83433 -13.46408,6.99056 -31.00403,9.79966c-17.53995,2.8091 -31.73951,5.20733 -32.51376,0.37299c-0.77424,-4.83433 13.51262,-4.92652 31.05257,-7.73563c17.53995,-2.8091 31.69096,-7.27136 32.4652,-2.43702z" fill="#ffc666" stroke-linecap="butt"/><path d="M217.06281,90.77522c17.53995,2.8091 31.82681,2.90129 31.05257,7.73562c-0.77424,4.83433 -14.97379,2.4361 -32.51374,-0.37299c-17.53995,-2.8091 -31.77826,-4.96532 -31.00402,-9.79966c0.77424,-4.83433 14.92525,-0.37207 32.4652,2.43703z" data-paper-data="{&quot;index&quot;:null}" fill="#ffc666" stroke-linecap="butt"/><path d="M248.52441,73.7913c0.77424,4.83433 -13.46408,6.99056 -31.00403,9.79966c-17.53995,2.8091 -31.73951,5.20732 -32.51376,0.37299c-0.77424,-4.83433 13.51262,-4.92652 31.05257,-7.73561c17.53995,-2.8091 31.69097,-7.27136 32.46521,-2.43703z" fill="#ffc666" stroke-linecap="butt"/><path d="M247.74159,72.65914c0,4.89593 -14.40014,4.7734 -32.16361,4.7734c-17.76347,0 -32.16361,0.12253 -32.16361,-4.7734c0,-4.89593 14.12167,-2.72765 31.88513,-2.72765c17.76347,0 32.44207,-2.16828 32.44207,2.72765z" fill="#ffea66" stroke-linecap="butt"/><path d="M248.6301,86.27675c0,4.89593 -14.40014,4.7734 -32.16361,4.7734c-17.76347,0 -32.16361,0.12254 -32.16361,-4.7734c0,-4.89593 14.12167,-2.72766 31.88513,-2.72766c17.76347,0 32.44209,-2.16828 32.44209,2.72766z" fill="#ffea66" stroke-linecap="butt"/><path d="M249.2913,99.89432c0,4.89593 -14.40014,4.7734 -32.16361,4.7734c-17.76347,0 -32.16361,0.12254 -32.16361,-4.7734c0,-4.89593 14.12167,-2.72766 31.88514,-2.72766c17.76347,0 32.44208,-2.16828 32.44208,2.72766z" fill="#ffea66" stroke-linecap="butt"/><path d="M249.04329,114.19381c0,4.89593 -14.40014,4.7734 -32.16361,4.7734c-17.76347,0 -32.16361,0.12254 -32.16361,-4.7734c0,-4.89593 14.12167,-2.72766 31.88513,-2.72766c17.76347,0 32.44209,-2.16828 32.44209,2.72766z" fill="#ffea66" stroke-linecap="butt"/><path d="M250.15911,130.08441c0,4.89593 -14.40014,4.7734 -32.16361,4.7734c-17.76347,0 -32.16361,0.12254 -32.16361,-4.7734c0,-4.89593 14.12167,-2.72766 31.88513,-2.72766c17.76347,0 32.44209,-2.16828 32.44209,2.72766z" fill="#ffea66" stroke-linecap="butt"/><path d="M197.0022,109.53121c0,0 1.5529,-17.80871 9.46867,-17.94064c7.91578,-0.13193 8.47197,17.64163 8.47197,17.64163" fill="none" stroke-linecap="round"/><path d="M235.97326,109.63088c0,0 0.76782,-17.80871 4.68173,-17.94064c3.91391,-0.13193 4.18892,17.64163 4.18892,17.64163" fill="none" stroke-linecap="round"/></g><path d="M388.1815,164.53831c-1.56098,3.73695 -10.47727,2.91672 -19.9151,-1.83204c-9.43783,-4.74876 -15.82328,-11.62779 -14.26231,-15.36474c1.56098,-3.73695 10.47728,-2.91672 19.91511,1.83204c9.43783,4.74876 15.82328,11.62779 14.2623,15.36474z" fill-opacity="0.50196" fill="#000000" stroke="none" stroke-width="0" stroke-linecap="butt"/><g><path d="M392.05062,78.45982c7.3601,-11.06363 23.00891,-13.59133 34.9526,-5.64577c11.94369,7.94555 15.65943,23.35555 8.29934,34.41918c-7.3601,11.06363 -23.0089,13.59133 -34.95259,5.64578c-11.94369,-7.94555 -15.65944,-23.35555 -8.29935,-34.41918z" fill="url(#color-1)" stroke="none" stroke-width="0" stroke-linecap="butt"/><path d="M366.19227,155.8329l-9.25808,-6.81572l33.62331,-46.59326" fill="none" stroke="#000000" stroke-width="2" stroke-linecap="round"/><path d="M387.72947,157.02507l-10.77441,-6.51091l28.47632,-36.88184" fill="none" stroke="#000000" stroke-width="2" stroke-linecap="round"/><path d="M430.74779,102.23285l4.38883,-9.55902" fill="none" stroke="#000000" stroke-width="2" stroke-linecap="round"/><path d="M412.82773,77.8328l-8.02916,9.10761" fill="none" stroke="#000000" stroke-width="2" stroke-linecap="round"/><path d="M419.07249,104.97421l-7.88449,1.97934l-1.52213,-5.61001" fill="none" stroke="#000000" stroke-width="2" stroke-linecap="round"/></g><path d="M116.18862,224.82843c-2.11546,4.68225 -14.19893,3.65454 -26.9892,-2.29548c-12.79027,-5.95001 -21.44392,-14.56917 -19.32846,-19.25143c2.11546,-4.68225 14.19894,-3.65454 26.98921,2.29548c12.79027,5.95001 21.44391,14.56917 19.32845,19.25143z" fill-opacity="0.50196" fill="#000000" stroke="none" stroke-width="0" stroke-linecap="butt"/><g stroke-width="1"><path d="M109.27728,238.19557c0.79154,2.18798 0.75393,4.20742 -0.08402,4.51057c-0.83795,0.30315 -1.40029,-1.49927 -2.19183,-3.68723c-0.79154,-2.18798 -1.51254,-3.93297 -0.67459,-4.23612c0.83795,-0.30315 2.15892,1.22481 2.95046,3.41279z" fill="#2b2b2b" stroke="#000000" stroke-linecap="butt"/><path d="M67.21884,225.01563c-1.14105,-0.54003 -1.30284,-4.16195 0.31726,-7.58508c1.6201,-3.42314 4.40858,-5.35122 5.54963,-4.81119c1.14105,0.54003 -0.21956,3.29266 -1.83965,6.71579c-1.6201,3.42314 -2.8862,6.2205 -4.02724,5.68046z" data-paper-data="{&quot;index&quot;:null}" fill="#2b2b2b" stroke="#000000" stroke-linecap="butt"/><path d="M73.77401,216.75215c-3.96923,-1.10925 -6.63607,-3.97967 -5.95654,-6.41128c0.67954,-2.4316 4.44812,-3.50359 8.41736,-2.39435c3.96923,1.10925 3.23302,3.16826 2.55349,5.59987c-0.67955,2.4316 -1.04508,4.31499 -5.01431,3.20575z" fill="#2b2b2b" stroke="#000000" stroke-linecap="butt"/><path d="M102.57551,220.44041c4.10051,-0.41366 7.63005,1.28741 7.88347,3.79943c0.25341,2.51203 -2.86528,4.88376 -6.96578,5.29742c-4.10051,0.41366 -4.16535,-1.77206 -4.41876,-4.2841c-0.25341,-2.51203 -0.59943,-4.3991 3.50108,-4.81276z" fill="#2b2b2b" stroke="#000000" stroke-linecap="butt"/><path d="M106.03699,225.83412c4.06205,-0.69642 7.70086,0.7563 8.12749,3.24478c0.42664,2.48846 -2.52045,5.07033 -6.58249,5.76677c-4.06205,0.69642 -4.278,-1.47957 -4.70464,-3.96803c-0.42664,-2.48846 -0.90241,-4.34708 3.15962,-5.04351z" fill="#2b2b2b" stroke="#000000" stroke-linecap="butt"/><path d="M70.49787,214.65573c5.55257,-8.0777 14.24624,-4.56517 24.0986,2.20729c9.85235,6.77244 17.13251,14.2402 11.57994,22.31792c-5.55257,8.0777 -18.04072,9.13582 -27.89307,2.36338c-9.85235,-6.77244 -13.33803,-18.81088 -7.78546,-26.88858z" fill="#ffffff" stroke="#d0d0d0" stroke-linecap="butt"/><path d="M85.45686,229.81058c2.61559,-2.73882 4.69814,-4.99521 5.6111,-4.12334c0.91294,0.87187 0.11172,4.166 -2.50388,6.90482c-2.61559,2.73882 -6.05509,3.88524 -6.96803,3.01337c-0.91294,-0.87187 1.24523,-3.05602 3.86083,-5.79485z" fill="#2b2b2b" stroke="#000000" stroke-linecap="butt"/><g stroke="none" stroke-linecap="butt"><path d="M80.86383,223.65862c0.72912,-1.06071 2.21315,-1.30678 3.31465,-0.54961c1.1015,0.75716 1.40338,2.23085 0.67424,3.29156c-0.72912,1.06071 -2.21314,1.30677 -3.31464,0.54961c-1.1015,-0.75716 -1.40338,-2.23085 -0.67425,-3.29156z" fill="#000000"/><path d="M82.73135,225.21425c0.3225,-0.46917 0.89812,-0.63351 1.28568,-0.36711c0.38757,0.26641 0.44031,0.8627 0.11782,1.33186c-0.3225,0.46917 -0.89812,0.63353 -1.28569,0.36711c-0.38757,-0.26641 -0.44031,-0.86272 -0.11782,-1.33187z" fill="#ffffff"/></g><g stroke="none" stroke-linecap="butt"><path d="M70.6423,216.84992c0.72912,-1.06071 2.21316,-1.30677 3.31466,-0.54961c1.1015,0.75716 1.40338,2.23085 0.67425,3.29155c-0.72912,1.06071 -2.21314,1.30677 -3.31464,0.54961c-1.1015,-0.75716 -1.40339,-2.23085 -0.67426,-3.29156z" fill="#000000"/><path d="M72.50982,218.4056c0.3225,-0.46917 0.89811,-0.63352 1.28568,-0.36711c0.38757,0.26641 0.44032,0.86271 0.11782,1.33186c-0.3225,0.46917 -0.89812,0.63352 -1.28569,0.36711c-0.38757,-0.26641 -0.44031,-0.86272 -0.11782,-1.33187z" fill="#ffffff"/></g><path d="M78.79128,218.91533c-0.33882,-0.24302 -0.98345,-1.0529 -0.98345,-1.0529c0,0 1.45149,-0.89151 2.0975,-0.42816c0.64601,0.46336 0.13905,2.03232 0.13905,2.03232c0,0 -0.85576,-0.26628 -1.2531,-0.55127z" fill="#000000" stroke="#000000" stroke-linecap="round"/><path d="M78.39076,213.39115c0,0 2.17351,-2.05964 3.13566,-1.74198c0.96214,0.31766 1.09283,1.54786 1.09283,1.54786c0,0 1.14833,-0.33751 2.02794,0.31149c0.87962,0.649 0.05559,3.21009 0.05559,3.21009z" fill="#000000" stroke="#000000" stroke-linecap="round"/><path d="M89.07483,224.2207c-4.02017,-0.90743 -6.82853,-3.63954 -6.27265,-6.10235c0.5559,-2.46283 4.26556,-3.72371 8.28573,-2.81628c4.02017,0.90743 3.38886,3.00098 2.83297,5.46379c-0.5559,2.46283 -0.82589,4.36227 -4.84606,3.45485z" fill="#2b2b2b" stroke="#000000" stroke-linecap="butt"/></g><path d="M-72.30585,40.97961c0.44673,0.04769 0.82988,-0.20737 0.82988,-0.20737l0.67817,-0.45379c0.9944,-0.75591 2.0324,-1.12458 3.08076,-1.77958c1.73618,-1.08475 3.17655,-2.64836 4.88576,-3.78788c1.99686,-1.33128 4.07963,-2.08783 6.29017,-2.87473c3.10084,-1.10383 6.42561,-2.33109 9.73883,-2.654c3.95617,-0.49128 7.73026,-0.65272 11.67302,0.14262c2.24522,0.45291 4.38165,1.33502 6.59836,1.86548c2.28218,0.54612 4.33151,1.17255 6.47629,2.23052c1.57083,0.77486 2.95657,2.0431 4.36508,3.07187c6.42987,4.67806 9.62955,12.61175 10.95503,20.21409c0.43531,2.49676 1.23466,5.56973 0.74514,8.11145c-0.39146,2.03254 -1.23149,4.07873 -1.7788,6.07913c-1.04881,2.65907 -2.26507,5.12458 -3.78542,7.52913c-0.86529,1.36852 -1.56637,2.89804 -2.80541,4.00217c-3.11565,2.77639 -7.55934,4.12403 -11.48954,5.19083c-5.46193,1.48257 -10.85012,2.60153 -16.5215,2.82157c-4.57774,-0.26417 -9.66378,-0.18432 -14.05196,-1.6542c-3.19629,-1.07064 -6.20485,-2.81381 -9.10045,-4.47116c-0.89302,-0.51113 -1.90966,-0.80704 -2.76045,-1.38573c-2.8159,-1.91533 -5.74497,-5.05535 -6.63691,-8.41067c-0.9081,-3.3433 -2.27553,-6.8529 -2.58161,-10.32401c-0.49131,-5.57169 1.31312,-11.85499 3.04329,-17.07249c0.65168,-1.96523 1.06946,-4.33832 2.15228,-6.18325z" data-paper-data="{&quot;noHover&quot;:false,&quot;origItem&quot;:[&quot;Path&quot;,{&quot;applyMatrix&quot;:true,&quot;segments&quot;:[[[315.6991,106.30073],[0,0],[-6.4775,6.34208]],[[300.04158,129.18269],[4.848,-7.31292],[-12.87104,19.41514]],[[268.6512,195.57449],[4.1797,-23.33116],[-2.60392,14.53512]],[[267.74078,240.63225],[0,-14.68112],[-0.07944,14.71232]],[[285.53078,282.37097],[-9.3881,-10.96058],[2.83652,3.31162]],[[295.2763,291.09671],[-3.08424,-3.08222],[10.0006,9.9941]],[[327.5065,319.46683],[-11.882,-7.92876],[16.31276,10.88536]],[[383.09502,341.81913],[-18.42724,-6.1652],[23.43752,5.3998]],[[453.74078,348.63223],[-23.9834,-0.00404],[17.25754,0.0029]],[[506.46126,340.18207],[-15.8254,7.89326],[6.29352,-3.13902]],[[522.36908,326.94011],[-5.05872,4.63544],[8.88838,-8.14464]],[[546.19792,300.37245],[-7.24274,9.70926],[4.46022,-7.57268]],[[560.21678,277.50301],[-3.85856,7.87724],[4.82518,-9.85058]],[[566.17322,243.52497],[-0.99314,10.69402],[3.02398,-32.56214]],[[543.83642,148.75571],[21.09868,26.27312],[-4.61736,-5.77172]],[[529.40614,131.35787],[5.5632,4.91362],[-7.59592,-6.70898]],[[505.413,115.05735],[8.72634,4.76836],[-8.476,-4.63158]],[[480.51894,100.11147],[8.67876,4.34614],[-15.24046,-7.6321]],[[432.97616,86.57343],[16.72448,2.38534],[-13.9081,-2.35972]],[[390.23346,86.60791],[13.907,-1.06978],[-9.9141,0.76262]],[[361.337,91.37059],[9.64494,-3.2262],[-8.25556,2.76148]],[[337.1655,101.42495],[8.30502,-2.50756],[-5.0148,1.51414]],[[322.59772,105.27461],[4.90626,-1.98672],[0,0]],[319.32192,106.37565],[[315.6991,106.30071],[1.77392,0.69124],[0,0]]],&quot;closed&quot;:true,&quot;fillColor&quot;:[0,0,0],&quot;strokeWidth&quot;:0.5}]}" fill="#ffef85" stroke="none" stroke-width="0.25" stroke-linecap="butt"/><path d="M-23.21992,67.7134c-0.10932,-0.25904 -0.1297,-0.59598 0.10262,-1.00156c0.58645,-1.02383 1.61028,-0.43738 1.61028,-0.43738l0.79869,1.62776c-0.85523,2.05688 -2.42399,3.3648 -4.00201,4.89802c-2.17884,2.08989 -4.31161,4.52358 -6.9114,6.09728c-2.71801,1.64526 -6.22978,2.35301 -9.30972,3.02948c-2.41346,0.53009 -4.96031,1.27025 -7.43924,0.66582c-3.02917,-0.73858 -5.7762,-2.48892 -8.44869,-4.01972c0,0 -1.02383,-0.58645 -0.43738,-1.61028c0.58645,-1.02383 1.61028,-0.43738 1.61028,-0.43738c2.48969,1.42609 5.03641,3.07333 7.85226,3.77909c2.05096,0.51405 4.37294,-0.24774 6.3571,-0.68251c2.80564,-0.61477 6.11624,-1.23387 8.59069,-2.74162c2.43813,-1.48562 4.45004,-3.81439 6.49731,-5.7781c1.10577,-1.07344 2.38292,-2.05098 3.12922,-3.38892z" fill="#000000" stroke="none" stroke-width="0.5" stroke-linecap="butt"/><path d="M-45.16686,53.88958c-0.58645,1.02383 -1.61028,0.43738 -1.61028,0.43738l-0.42848,-0.2591c-2.05956,-0.85541 -3.70535,-0.40139 -5.66404,0.30986c-1.06577,0.38701 -2.21482,0.57133 -3.22054,1.09494c-2.26635,1.17995 -4.30776,2.75743 -6.65102,3.78076c0,0 -1.08345,0.4672 -1.55065,-0.61626c-0.4672,-1.08345 0.61626,-1.55065 0.61626,-1.55065c5.5237,-2.34599 10.8773,-7.69769 17.34152,-5.21161l0.72985,0.4044c0,0 1.02383,0.58645 0.43738,1.61028z" fill="#000000" stroke="none" stroke-width="0.5" stroke-linecap="butt"/><path d="M-20.9157,47.55822c-0.06667,1.17801 -1.24468,1.11134 -1.24468,1.11134l-0.999,-0.08468c-0.76747,-0.21761 -1.47127,-0.68453 -2.26366,-0.77667c-1.27758,-0.14857 -3.01917,0.42787 -4.20539,0.75178c-2.57995,0.70451 -5.16184,1.40205 -7.74274,2.10307c0,0 -1.13864,0.30927 -1.44791,-0.82936c-0.30927,-1.13864 0.82936,-1.44791 0.82936,-1.44791c2.58091,-0.70102 5.16094,-1.40533 7.74274,-2.10307c1.53247,-0.41416 3.52604,-0.99916 5.15114,-0.8115c0.89801,0.1037 1.70744,0.59806 2.5777,0.84267l0.49108,-0.00035c0,0 1.17801,0.06667 1.11134,1.24468z" fill="#000000" stroke="none" stroke-width="0.5" stroke-linecap="butt"/><path d="M-32.14478,40.19593c0.30927,1.13864 -0.82936,1.44791 -0.82936,1.44791l-0.06981,0.00667c-9.53657,4.11178 -19.74739,6.35415 -29.74283,9.06908c0,0 -1.13864,0.30927 -1.44791,-0.82936c-0.30927,-1.13864 0.82936,-1.44791 0.82936,-1.44791c9.8854,-2.68505 19.99566,-4.89141 29.42699,-8.95872l0.38565,-0.11704c0,0 1.13864,-0.30927 1.44791,0.82936z" fill="#000000" stroke="none" stroke-width="0.5" stroke-linecap="butt"/><path d="M-36.73965,161.99318l-18.71748,-71.0937c0,0 14.32263,2.31403 21.13708,1.49644c6.56824,-1.92822 19.91202,-6.42146 19.91202,-6.42146c0,0 12.30165,45.70943 16.27782,53.95156c1.2076,2.50321 2.52812,4.37243 2.52812,4.37243z" fill="#ffef85" stroke="#ffef85" stroke-width="0.5" stroke-linecap="butt"/><path d="M23.31063,77.33143c0.37421,0.21435 0.5333,0.48713 0.58453,0.74698c0.49421,-0.1542 0.99742,-0.23217 1.50958,-0.20077c0.03917,0.0024 0.07822,0.00551 0.11716,0.00927l-0.00155,-0.02288l1.17869,-0.08006c0.55815,-0.04897 1.08839,0.30672 1.24041,0.86642c0.13275,0.48875 -0.06197,0.98922 -0.45055,1.26815l-0.18276,0.13771c0.77212,-0.17196 2.56787,-0.84922 3.37225,-0.6374c0.0415,0.01093 0.08268,0.02266 0.12358,0.03514l0.00317,-0.02734l1.23505,0.14302c0.4763,0.04401 0.89746,0.3772 1.03021,0.86595c0.17081,0.62885 -0.20051,1.27711 -0.82936,1.44791c-0.00005,0.00001 -0.00011,0.00003 -0.00016,0.00004l-1.37371,0.37294l-0.00134,-0.00492l-0.01184,0.00842c-2.29326,0.56569 -4.59314,1.00439 -6.873,1.62256c-0.78609,0.21314 -1.55276,0.52051 -2.35877,0.63761c-0.34058,0.04948 -0.75409,-0.36245 -1.02202,-0.14646c-0.21232,0.17116 0.22099,0.51273 0.22951,0.78533c0.01445,0.46216 -0.07171,0.92418 -0.16188,1.37769c-0.33052,1.66242 -0.99991,3.61864 -0.89874,5.33796c0.03387,0.57556 0.44476,1.09752 0.43529,1.674c-0.0104,0.63317 -0.32861,1.22315 -0.49291,1.83473c-1.71991,2.40567 -3.15428,5.6392 -5.54326,7.46562c-1.42357,1.08834 -3.40155,1.78643 -5.03455,2.42109c-1.34236,0.5217 -3.22204,1.37168 -4.65266,1.48232c-0.16297,0.0126 -3.32527,-0.63702 -3.53841,-0.6858c-2.52219,-0.57722 -5.80936,-1.01132 -8.10027,-2.3166c1.84044,6.85422 3.73694,13.69227 5.82149,20.46608c1.79104,5.82713 4.29094,11.45713 6.65313,17.06823l0.00895,1.19357c0,0 -0.14764,1.17062 -1.31826,1.02298c-1.17062,-0.14764 -1.02298,-1.31826 -1.02298,-1.31826l0.15731,0.01719c-2.39237,-5.68478 -4.91516,-11.3876 -6.73356,-17.28963c-4.00413,-13.01152 -7.31656,-26.25914 -10.86756,-39.40438c-3.19039,2.19225 -7.14754,3.42266 -10.78285,4.41072c-5.674,1.54217 -11.25811,2.67617 -17.14934,2.90066c-4.30431,-0.23919 -8.98697,-0.23121 -13.23241,-1.32176c3.44925,12.6989 6.89849,25.3978 10.34774,38.09669c1.97505,7.27142 3.78095,14.61586 5.93108,21.8372c0.94652,3.17895 2.18989,6.26717 3.06035,9.46552l0.25706,0.27713c0,0 0.65347,0.98241 -0.32893,1.63588c-0.98241,0.65347 -1.63588,-0.32893 -1.63588,-0.32893l-0.56952,-0.96553c-0.86246,-3.18197 -2.10506,-6.25406 -3.04637,-9.41619c-2.1546,-7.23791 -3.96551,-14.59855 -5.94506,-21.88652c-3.48449,-12.82866 -6.96898,-25.65732 -10.45347,-38.48598c0,0 -0.13831,-0.5092 0.11057,-0.93905c-3.06964,-1.12483 -5.97996,-2.79261 -8.78286,-4.39936c-0.94353,-0.54088 -2.00824,-0.86809 -2.90889,-1.47772c-3.30992,-2.24039 -6.50904,-5.83798 -7.58757,-9.74034c-0.94913,-3.49436 -2.33365,-7.13059 -2.65548,-10.75744c-0.52204,-5.88312 1.32764,-12.46834 3.15494,-17.98179c1.05171,-3.1733 1.63408,-6.51146 4.15445,-8.83053c0,0 0.83901,-0.74913 1.6101,0.03464c0.64985,-0.35873 1.30956,-0.67619 1.97075,-1.08565c1.70875,-1.0582 3.12737,-2.62109 4.81122,-3.73881c2.14313,-1.42258 4.38412,-2.27112 6.75918,-3.11659c3.29475,-1.17286 6.79311,-2.42936 10.30847,-2.79153c4.19309,-0.51879 8.2074,-0.66519 12.38505,0.17236c2.26391,0.45388 4.41503,1.34458 6.64849,1.87532c2.46475,0.58569 4.71448,1.26917 7.01728,2.42201c1.69269,0.8474 3.17327,2.16075 4.69629,3.27316c6.92441,5.07535 10.44235,13.46382 11.88144,21.6998c0.48963,2.80216 1.26668,6.07155 0.7445,8.92203c-0.39228,2.14134 -1.28499,4.30973 -1.86297,6.41091c-1.11878,2.84082 -2.40542,5.47195 -4.02955,8.04273c-0.90703,1.43571 -1.66331,2.94843 -2.87275,4.16271c1.43059,5.27468 2.8187,10.56736 4.22483,15.856c0.57467,0.55698 1.6795,1.64197 2.19165,1.93495c2.09252,1.19702 5.19293,1.56409 7.49958,2.09222c0.97699,0.22369 1.94147,0.71292 2.94024,0.62925c0.92707,-0.07766 3.04652,-1.00188 3.87728,-1.32362c1.46707,-0.56817 3.20087,-1.17056 4.49063,-2.12234c0.63191,-0.46632 1.38053,-1.74243 1.76034,-2.25299c1.07021,-1.43858 1.98869,-2.91587 3.05927,-4.34445c0.23263,-0.74258 -0.13702,-1.55066 -0.17577,-2.32786c-0.09635,-1.93218 0.55398,-4.05069 0.9342,-5.91916c0.07453,-0.36626 0.12133,-1.11096 0.19179,-1.80907l-0.26044,0.12989c-0.07458,0.03905 -0.15451,0.07066 -0.2391,0.09364c-0.62885,0.17081 -1.27711,-0.20051 -1.44791,-0.82936c-0.13275,-0.48875 0.06197,-0.98922 0.45055,-1.26815l0.99298,-0.74819l0.0301,0.03995l0.05903,-0.10092c0.39491,-0.19637 0.79808,-0.44966 1.20944,-0.7318c0.76098,-0.84564 1.4395,-1.88478 2.16895,-2.72099l0.19685,-0.38976c0,0 0.58645,-1.02383 1.61028,-0.43738zM-72.28589,40.99223c-1.08282,1.84493 -1.49861,4.21412 -2.15029,6.17935c-1.73017,5.2175 -3.53312,11.48921 -3.0418,17.0609c0.30608,3.47111 1.67162,6.97392 2.57971,10.31721c0.89194,3.35532 3.81712,6.48934 6.63302,8.40466c0.85079,0.5787 1.86604,0.87315 2.75905,1.38428c2.8956,1.65735 5.89825,3.39643 9.09454,4.46707c4.38818,1.46987 9.4639,1.38764 14.04164,1.65182c5.67138,-0.22004 11.04749,-1.33568 16.50942,-2.81825c3.9302,-1.0668 8.36759,-2.40896 11.48323,-5.18535c1.23905,-1.10413 1.93829,-2.63101 2.80357,-3.99954c1.52034,-2.40455 2.73434,-4.86506 3.78315,-7.52412c0.54731,-2.0004 1.38644,-4.0426 1.7779,-6.07514c0.48952,-2.54171 -0.30995,-5.60942 -0.74526,-8.10618c-1.32548,-7.60235 -4.51877,-15.52189 -10.94865,-20.19995c-1.40851,-1.02877 -2.79149,-2.29453 -4.36232,-3.06939c-2.14478,-1.05798 -4.18999,-1.68187 -6.47217,-2.22799c-2.21671,-0.53046 -4.34832,-1.41086 -6.59354,-1.86377c-3.94276,-0.79534 -7.70803,-0.63352 -11.6642,-0.14223c-3.31322,0.32291 -6.63073,1.54786 -9.73156,2.6517c-2.21054,0.78691 -4.28907,1.5407 -6.28593,2.87198c-1.70921,1.13951 -3.14643,2.70003 -4.88261,3.78478c-1.04835,0.655 -2.08496,1.02186 -3.07937,1.77776l-0.67789,0.45336c0,0 -0.38292,0.25471 -0.82965,0.20702z" fill="#000000" stroke="none" stroke-width="0.5" stroke-linecap="butt"/><g><path d="M462.54008,59.81981l39.64269,-35.72861l-5.90583,55.30613" fill="none" stroke="#000000" stroke-width="2.5" stroke-linecap="round"/><path d="M502.08826,23.85038l32.3378,-55.21286" fill="none" stroke="#000000" stroke-width="2.5" stroke-linecap="round"/><path d="M567.42054,-12.51636l-39.09271,-6.9722l-29.49478,-23.12404" fill="none" stroke="#000000" stroke-width="2.5" stroke-linecap="round"/><path d="M534.09854,-29.45528c-10.32499,-5.73449 -13.95693,-18.91423 -8.11217,-29.43777c5.84476,-10.52354 18.95293,-14.40585 29.27793,-8.67137c10.32499,5.73449 13.95693,18.91423 8.11217,29.43777c-5.84476,10.52354 -18.95293,14.40585 -29.27793,8.67137z" fill="#ffffff" stroke="#000000" stroke-width="2.5" stroke-linecap="butt"/><path d="M545.87834,-53.05631c0.03978,0.18536 0.15628,0.98324 -0.71526,1.23237c-0.98853,0.28256 -1.2711,-0.70597 -1.2711,-0.70597l-0.01683,-1.15456c0.45639,-0.82174 2.20994,-3.46969 1.31793,-4.45377c-2.30716,-2.54528 -5.40465,-0.89302 -6.71074,1.45861c0,0 -0.49919,0.8988 -1.39799,0.39961c-0.8988,-0.49919 -0.39961,-1.39799 -0.39961,-1.39799c1.62647,-2.92848 4.58186,-4.8548 7.89523,-3.06333c0.33096,0.17894 2.09468,1.14808 2.2234,1.32439c1.41518,1.93852 0.08948,4.52673 -0.92504,6.36062z" fill="#000000" stroke="none" stroke-width="0.5" stroke-linecap="butt"/><path d="M525.2089,-42.10792c-0.23645,0.15236 -0.57735,0.23738 -1.01146,-0.00372c-0.8988,-0.49919 -0.39961,-1.39799 -0.39961,-1.39799l1.29821,-0.73352c2.34104,0.62778 4.25888,-0.09886 6.56908,0.62986c1.5113,-0.48677 2.56715,-1.73696 3.31664,-3.0932c0.30195,-0.54639 0.51432,-1.1373 0.76686,-1.70867c-0.81262,0.52891 -2.30544,0.77688 -2.74556,0.87093c-3.77258,0.80614 -6.87242,-0.70681 -10.05816,-2.47617c0,0 -0.8988,-0.49919 -0.39961,-1.39799c0.49919,-0.8988 1.39799,-0.39961 1.39799,-0.39961c2.45446,1.3632 4.51802,2.57462 7.44203,2.42726c1.39732,-0.07042 2.44313,-0.68065 3.72914,-1.08381c0.70979,-0.22252 1.54364,-0.92039 2.17023,-0.51953c1.50352,0.96189 0.48859,3.23308 0.06526,4.25143c-1.06594,2.5642 -3.00912,4.46849 -5.66795,5.18555c-2.27948,-0.54685 -4.22091,-0.11107 -6.47311,-0.55079z" fill="#000000" stroke="none" stroke-width="0.5" stroke-linecap="butt"/><path d="M547.907,-71.62861c3.7046,-2.20729 9.4003,-4.79064 13.84342,-4.53172c2.70384,0.15757 8.03643,2.79371 9.6448,5.02035c1.15201,1.59486 1.86965,6.48381 1.78585,8.37323c-0.10003,2.25551 -1.31076,4.98404 -2.14107,7.0567c-1.13779,2.82709 -1.63512,6.43488 -5.81008,6.14628c-1.15698,-0.07997 -2.00235,-1.17278 -2.97136,-1.80997c-1.96548,-1.29244 -3.58032,-2.9615 -5.28905,-4.5596c-4.37326,-4.09013 -8.19319,-8.69714 -12.6676,-12.66768c-2.60659,-2.31307 -5.54285,-3.8573 -7.71431,-6.61269c0,0 -1.25897,-1.62577 0.3668,-2.88474c1.62577,-1.25897 2.88474,0.3668 2.88474,0.3668c2.00755,2.6534 5.07555,4.33083 7.65367,6.50739zM550.41297,-68.33912c4.72858,5.04347 9.59136,11.06667 15.32671,14.69458c0.47467,0.30026 0.47504,-1.02002 0.65993,-1.55037c0.24255,-0.69573 0.55018,-1.36704 0.82527,-2.05056c0.67084,-1.65826 1.77567,-3.96444 1.85178,-5.77913c0.04327,-1.03155 -0.37294,-4.82811 -1.03855,-5.73999c-0.15178,-0.20794 -3.25947,-1.89176 -3.26128,-1.89278c-0.82303,-0.46039 -2.12155,-1.37384 -3.17904,-1.3933c-3.54327,-0.06519 -8.1274,1.88719 -11.18481,3.71155z" data-paper-data="{&quot;index&quot;:null}" fill="#000000" stroke="none" stroke-width="0.5" stroke-linecap="butt"/><path d="M550.37411,-68.3526c3.05741,-1.82436 7.68734,-3.80378 11.23061,-3.7386c1.05749,0.01946 2.37402,0.94075 3.19704,1.40115c0.00181,0.00101 3.12123,1.69895 3.27301,1.9069c0.66561,0.91189 1.08534,4.7356 1.04208,5.76715c-0.0761,1.81469 -1.1937,4.14289 -1.86453,5.80114c-0.27509,0.68351 -0.58845,1.35914 -0.831,2.05487c-0.18489,0.53035 -0.18926,1.85282 -0.66393,1.55257c-5.73535,-3.62792 -10.65471,-9.7017 -15.3833,-14.74517z" data-paper-data="{&quot;noHover&quot;:false,&quot;origItem&quot;:[&quot;Path&quot;,{&quot;applyMatrix&quot;:true,&quot;segments&quot;:[[[207.73186,280.44331],[-8.00318,2.56921],[-2.1727,-3.74393]],[[198.03477,269.89575],[3.80455,2.02239],[-1.13547,-0.60358]],[[193.83333,269.5],[1.14656,-0.0035],[-0.00252,0.00001]],[[189.24964,269.58659],[0.28409,-0.13142],[-1.24577,0.5763]],[[184.75734,275.07443],[0.56296,-1.12195],[-0.99035,1.97372]],[[183.31403,282.31009],[0.26589,-2.15853],[-0.11111,0.88889]],[[182.98069,284.97675],[0.1529,-0.88266],[-0.11656,0.67285]],[[182.7669,287.01418],[-0.68176,0.03893],[8.23761,-0.47034]]],&quot;closed&quot;:true}],&quot;index&quot;:null}" fill="#fbff00" stroke="none" stroke-width="0.5" stroke-linecap="butt"/></g><path d="M-46.74209,420.90309c0,5.00558 -6.56981,9.0634 -14.67407,9.0634c-8.10427,0 -14.67407,-9.0634 -14.67407,-9.0634c0,0 6.13822,-0.86318 14.24248,-0.86318c8.10427,0 15.10566,-4.1424 15.10566,0.86318z" fill="url(#color-2)" stroke="#ff7a00" stroke-width="1" stroke-linecap="butt"/><g stroke="#ff7a00" stroke-width="1"><path d="M2.20538,397.91796c0,14.77837 -8.50211,26.7586 -18.98997,26.7586c-10.48787,0 -18.98997,-11.98023 -18.98997,-26.7586c0,-14.77837 8.50211,-26.7586 18.98997,-26.7586c10.48787,0 18.98997,11.98023 18.98997,26.7586z" fill="url(#color-3)" stroke-linecap="butt"/><path d="M-24.55322,424.89236c0,-3.93295 9.46824,-7.12124 21.14792,-7.12124c11.67967,0 21.14793,3.18829 21.14793,7.12124c0,3.93295 -9.46825,7.12124 -21.14793,7.12124c-11.67967,0 -21.14792,-3.18829 -21.14792,-7.12124z" fill="url(#color-4)" stroke-linecap="butt"/><path d="M-1.67893,432.01359l-1.29478,-5.17908" fill="none" stroke-linecap="round"/><path d="M6.52127,430.28723l-0.86318,-4.3159" fill="none" stroke-linecap="round"/><path d="M13.42672,423.38179l0.86318,6.04227" fill="none" stroke-linecap="round"/></g><g stroke="#ff7a00" stroke-width="1"><path d="M50.85291,412.08847c-5.9985,18.56292 -15.16074,32.22179 -20.46442,30.50794c-5.30369,-1.71385 -4.74044,-18.15143 1.25806,-36.71436c5.9985,-18.56292 15.16074,-32.22179 20.46442,-30.50794c5.30369,1.71385 4.74044,18.15143 -1.25806,36.71436z" fill="url(#color-5)" stroke-linecap="butt"/><path d="M35.64612,435.89898l-0.62204,4.66006" fill="none" stroke-linecap="round"/><path d="M27.16296,438.9026l4.211,-4.82606" fill="none" stroke-linecap="round"/><path d="M32.55199,437.81577l-1.95174,4.67229" fill="none" stroke-linecap="round"/></g><g><path d="M-54.85122,424.41866c-10.09236,-22.7078 5.46773,-51.66791 34.75443,-64.68422c29.2867,-13.01631 61.20972,-5.1598 71.30207,17.54799c10.09236,22.7078 -14.71885,35.6887 -44.00554,48.70501c-29.2867,13.01631 -51.95861,21.13901 -62.05095,-1.56879z" fill="url(#color-6)" stroke="#ff7a00" stroke-width="1" stroke-linecap="butt"/><path d="M8.64256,383.35474l4.74749,6.47386" fill="none" stroke="#d97c56" stroke-width="5" stroke-linecap="round"/><path d="M-5.16831,383.78633l12.08453,24.16906" fill="none" stroke="#d97c56" stroke-width="5" stroke-linecap="round"/><path d="M-20.27397,393.28132l11.22135,26.7586" fill="none" stroke="#d97c56" stroke-width="5" stroke-linecap="round"/><path d="M-1.71559,407.95539l-7.76863,-18.12679" fill="none" stroke="#d97c56" stroke-width="5" stroke-linecap="round"/><path d="M-32.79009,401.48153l8.63181,19.85315" fill="none" stroke="#d97c56" stroke-width="5" stroke-linecap="round"/><path d="M-17.68443,415.72401l-7.33704,-14.24248" fill="none" stroke="#d97c56" stroke-width="5" stroke-linecap="round"/><path d="M-37.96917,426.94536l-9.0634,-16.40043" fill="none" stroke="#d97c56" stroke-width="5" stroke-linecap="round"/><path d="M-38.40076,410.97652l4.3159,12.08453" fill="none" stroke="#d97c56" stroke-width="5" stroke-linecap="round"/><path d="M-5.5999,414.42924l3.88431,7.76863" fill="none" stroke="#d97c56" stroke-width="5" stroke-linecap="round"/><path d="M-3.01036,376.88088l6.90545,12.94771" fill="none" stroke="#d97c56" stroke-width="5" stroke-linecap="round"/></g><g stroke="#ff7a00" stroke-width="1"><path d="M30.12583,404.31526c9.83991,16.8446 13.91523,32.77893 9.1025,35.59032c-4.81274,2.81141 -16.69106,-8.56474 -26.53097,-25.40934c-9.83991,-16.8446 -13.91523,-32.77893 -9.1025,-35.59032c4.81274,-2.81141 16.69106,8.56474 26.53097,25.40934z" fill="url(#color-7)" stroke-linecap="butt"/><path d="M40.79933,435.09191l-3.05933,-3.56982" fill="none" stroke-linecap="round"/><path d="M33.53388,433.49214l0.79089,6.35593" fill="none" stroke-linecap="round"/><path d="M39.28872,439.67551l-2.18215,-4.56922" fill="none" stroke-linecap="round"/></g><g stroke="#ff7a00" stroke-width="1"><path d="M-9.33672,413.99765c0,14.77837 -8.50211,26.7586 -18.98997,26.7586c-10.48788,0 -18.98997,-11.98023 -18.98997,-26.7586c0,-14.77837 8.5021,-26.75859 18.98997,-26.75859c10.48787,0 18.98997,11.98023 18.98997,26.75859z" fill="url(#color-8)" stroke-linecap="butt"/><path d="M-36.09533,440.97205c0,-3.93295 9.46825,-7.12123 21.14792,-7.12123c11.67967,0 21.14792,3.18828 21.14792,7.12123c0,3.93295 -9.46825,7.12124 -21.14792,7.12124c-11.67967,0 -21.14792,-3.18829 -21.14792,-7.12124z" fill="url(#color-9)" stroke-linecap="butt"/><path d="M-14.51581,442.9142l1.29478,5.17909" fill="none" stroke-linecap="round"/><path d="M-5.884,442.05102l0.86318,4.31591" fill="none" stroke-linecap="round"/><path d="M2.74781,445.50374l-0.86318,-6.04226" fill="none" stroke-linecap="round"/></g><g><path d="M79.6187,356.88692c0,2.8911 -2.00579,8.9284 -4.00978,11.36495c-8.78152,10.67705 -32.83653,13.44487 -46.45087,13.44487c-16.72119,0 -30.27639,-12.61387 -30.27639,-28.17386c0,-15.55999 13.5552,-28.17386 30.27639,-28.17386c5.12933,0 16.228,1.01317 21.12428,4.92203c3.61781,2.88822 10.35021,9.80308 10.26964,13.41887c-0.20822,9.34477 19.06672,5.93695 19.06672,13.19701z" fill="url(#color-10)" stroke="#ff7a00" stroke-width="1" stroke-linecap="butt"/><path d="M39.49392,344.48268c1.99697,4.5764 -1.38821,10.4699 -7.56104,13.16349c-6.17283,2.6936 -12.79575,1.16728 -14.79272,-3.40912c-1.99697,-4.5764 1.38821,-10.4699 7.56104,-13.16349c6.17283,-2.6936 12.79575,-1.16728 14.79272,3.40912z" fill="#930000" stroke="#660000" stroke-width="1" stroke-linecap="butt"/><path d="M21.13724,349.35988c0,-3.09293 3.2145,-5.60024 7.17979,-5.60024c3.96529,0 7.17979,2.50731 7.17979,5.60024c0,3.09293 -3.2145,5.60024 -7.17979,5.60024c-3.96529,0 -7.17979,-2.50731 -7.17979,-5.60024z" fill="#000000" stroke="#462200" stroke-width="2" stroke-linecap="butt"/><path d="M29.78988,348.0675c0,-0.77269 0.62638,-1.39908 1.39908,-1.39908c0.7727,0 1.39908,0.62638 1.39908,1.39908c0,0.77269 -0.62638,1.39908 -1.39908,1.39908c-0.7727,0 -1.39908,-0.62639 -1.39908,-1.39908z" fill="#ffffff" stroke="none" stroke-width="0.5" stroke-linecap="butt"/><path d="M0.58984,360.04887c0,-1.90688 1.83568,-3.45272 4.1001,-3.45272c2.26443,0 4.1001,1.54584 4.1001,3.45272c0,1.90688 -1.83568,3.45272 -4.1001,3.45272c-2.26443,0 -4.1001,-1.54584 -4.1001,-3.45272z" fill="url(#color-11)" stroke="#ff7a00" stroke-width="1" stroke-linecap="butt"/><path d="M8.79008,360.26467c0,1.07263 -1.06276,1.94215 -2.37374,1.94215c-1.31098,0 -2.37374,-0.86953 -2.37374,-1.94215c0,-1.07263 1.06276,-1.94215 2.37374,-1.94215c1.31098,0 2.37374,0.86953 2.37374,1.94215z" fill="#000000" stroke="none" stroke-width="0" stroke-linecap="butt"/><path d="M79.13929,356.59614c0,2.14525 -2.41537,5.17909 -5.39488,5.17909c-2.97951,0 -5.39488,-3.03384 -5.39488,-5.17909c0,-2.14525 2.41537,-3.88431 5.39488,-3.88431c2.97951,0 5.39488,1.73907 5.39488,3.88431z" fill="#000000" stroke="none" stroke-width="0" stroke-linecap="butt"/><path d="M54.53865,367.8175c0,0 4.20139,1.11669 6.90545,0.86318c2.70405,-0.25351 4.07887,-2.35289 6.90545,-2.15795c2.82657,0.19494 5.61068,3.02113 5.61068,3.02113" fill="none" stroke="#ff7a00" stroke-width="1" stroke-linecap="round"/></g><g stroke-linecap="butt"><path d="M461.27917,399.49078c0,-13.21302 -0.01113,-26.44186 -0.01113,-39.65488c0,-6.66111 -0.00116,-13.33764 -0.00116,-19.99874c0,-3.38712 -0.28272,-6.95028 -0.00588,-10.32894c0.24121,-2.94383 1.41818,-5.08345 2.78178,-7.61531c1.12851,-2.09536 1.64743,-3.56855 3.22487,-5.4751c1.05688,-2.59585 2.42246,-3.66374 4.34115,-5.58077c1.87767,-1.87605 3.97406,-3.93608 6.24316,-5.32737c1.32466,-0.81221 2.87533,-1.20293 4.23653,-1.95229c1.09232,-0.60134 1.88806,-1.65244 2.95549,-2.29695c1.77587,-1.07226 4.04559,-1.58039 5.87735,-2.6086c3.37704,-1.89562 7.47004,-5.94689 11.50798,-6.08612c2.06561,1.47546 3.37678,3.73919 5.32542,5.2592c0.63121,0.49237 1.45909,0.67435 2.13382,1.10516c3.28735,2.09896 6.28201,4.79489 9.40256,7.13598c3.30025,2.4759 6.82795,4.5602 10.20534,6.91496c2.45149,1.70921 4.54157,4.03252 6.89527,5.90922c3.56169,2.06144 3.89676,6.42023 4.56415,10.06284c0.74308,4.05574 2.00558,8.14487 2.27881,12.31172c0.39424,6.01241 -0.00536,12.21342 -0.00536,18.24329c0,9.28187 -0.00801,18.577 -0.00801,27.85887c0,2.62076 -0.00212,5.24348 -0.00212,7.86424c0,1.02707 -0.18345,2.14823 0.05651,3.1459l-0.31787,0.79611c-3.0321,0.2203 -5.97775,1.07361 -9.03193,1.30682c-3.84153,0.29334 -7.82691,-0.00165 -11.68252,-0.00165c-8.08069,0 -16.17535,0.00196 -24.25604,0.00196c-9.82786,0 -19.67055,-0.00489 -29.49842,-0.00489c-2.35682,0 -4.71772,-0.02669 -7.0744,0.00393c-0.13763,0.00179 -0.27925,-0.00718 -0.42307,-0.02249c0.28783,-0.4521 0.28769,-0.96609 0.28769,-0.96609z" data-paper-data="{&quot;noHover&quot;:false,&quot;origItem&quot;:[&quot;Path&quot;,{&quot;applyMatrix&quot;:true,&quot;segments&quot;:[[[328.62138,487.19542],[0.87862,-1.38005],[0.43902,0.04674]],[[329.9124,487.26376],[-0.42013,0.00546],[7.19387,-0.09346]],[[351.5,487.24673],[-7.19429,0],[30,0]],[[441.5,487.24673],[-30,0],[24.66667,0]],[[515.5,487.24673],[-24.66667,0],[11.76943,0]],[[551.14555,487.25931],[-11.72644,0.89543],[9.32303,-0.71191]],[[578.7054,483.27731],[-9.25562,0.67249],[0,0]],[[579.67483,480.84784],[0,0],[-0.73251,-3.04543]],[[579.5,471.24673],[0,3.13517],[0,-8]],[[579.5,447.24673],[0,8],[0,-28.33333]],[[579.5,362.24673],[0,28.33333],[0,-18.40645]],[[579.51258,306.60117],[1.20345,18.35316],[-0.83404,-12.71948]],[[572.56456,269.04764],[2.2683,12.38034],[-2.03724,-11.11924]],[[558.64559,238.35189],[10.87221,6.29263],[-7.18476,-5.7287]],[[537.61214,220.32842],[7.48327,5.21743],[-10.30965,-7.18801]],[[506.48405,199.23471],[10.07416,7.55779],[-9.52562,-7.14627]],[[477.80523,177.4584],[10.03477,6.40717],[-2.05963,-1.31507]],[[471.29626,174.08549],[1.9268,1.50297],[-5.94831,-4.63989]],[[455.05108,158.03219],[6.30536,4.50391],[-12.326,0.42501]],[[419.94579,176.6077],[10.30858,-5.78648],[-5.59152,3.13867]],[[402.01741,184.56676],[5.42091,-3.27311],[-3.25836,1.96738]],[[393.00259,191.57536],[3.33437,-1.83561],[-4.15514,2.28746]],[[380.07903,197.53025],[4.04359,-2.47932],[-6.92652,4.24699]],[[361.03553,213.78226],[5.73168,-5.72672],[-5.85689,5.85182]],[[347.79464,230.8072],[3.22617,-7.92394],[-4.81523,5.81985]],[[337.95885,247.50917],[3.44484,-6.39618],[-4.16247,7.72863]],[[329.47567,270.73942],[0.7363,-8.98617],[-0.84506,10.31351]],[[329.5,302.24673],[0,-10.33935],[0,20.33333]],[[329.5,363.24673],[0,-20.33333],[0,40.33333]],[[329.5,484.24673],[0,-40.33333],[0,0]]],&quot;closed&quot;:true}]}" fill="#ffffff" stroke="none" stroke-width="0.5"/><text transform="translate(490.40061,335.06344) scale(0.953,0.953)" font-size="40" xml:space="preserve" fill="#6d6d6d" fill-rule="nonzero" stroke="#6d6d6d" stroke-width="4" stroke-linecap="butt" stroke-linejoin="miter" stroke-miterlimit="10" stroke-dasharray="" stroke-dashoffset="0" font-family="Sans Serif" font-weight="normal" text-anchor="start" style="mix-blend-mode: normal"><tspan x="0" dy="0">S</tspan></text><path d="M457.57482,402.58867l-0.32369,-0.51099c-2.56434,-1.03292 -4.71448,-1.38734 -7.49062,-1.2055c-1.26215,0.08267 -2.35312,1.35894 -1.16164,2.52562c1.10231,1.07936 3.37652,1.05864 4.64112,1.86826c0.81025,0.51873 1.44975,1.26513 2.17462,1.89769c3.23789,5.71798 0.16003,15.64121 -7.57987,15.77866c-2.19741,0.03902 -5.49756,-0.87504 -6.97586,-2.57637c-1.59424,-1.83476 -2.39694,-5.89409 -2.09689,-8.21588c0.09642,-0.7461 0.19698,-1.52593 0.55497,-2.1876c0.19568,-0.36168 0.88872,-0.31429 1.01106,-0.7069c0.08237,-0.26433 -0.56971,0.21592 -0.82381,0.10597c-0.6363,-0.27532 -2.32337,-1.74082 -2.91626,-2.23651c-0.72438,-0.51556 -1.7141,-0.78522 -2.17312,-1.54667c-0.89417,-1.4833 -0.34811,-3.34705 -0.24893,-4.89378c0.2993,-4.66744 3.53793,-8.39622 7.5725,-10.71068c2.03916,-1.16978 4.06767,-0.88298 6.2932,-0.88298c3.31076,0 6.71032,-0.02626 9.99166,0.51676c0,-9.92732 0,-19.85464 0,-29.78196c0,-6.66111 0,-13.32222 0,-19.98333c0,-3.49314 -0.28648,-7.16061 0.00797,-10.64446c0.28085,-3.32297 1.57534,-5.90471 3.11767,-8.76965c1.12408,-2.08803 1.75862,-3.79559 3.32975,-5.66676c1.09651,-2.79608 2.80377,-4.18311 4.83502,-6.21614c2.06797,-2.06978 4.37149,-4.27485 6.86525,-5.81416c1.33864,-0.8263 2.89925,-1.23349 4.28378,-1.98035c1.09416,-0.59022 1.87607,-1.65307 2.9435,-2.29035c1.81874,-1.08583 4.05338,-1.58176 5.92018,-2.63418c2.53867,-1.4312 4.99017,-3.0644 7.49319,-4.56226c1.07514,-0.64338 2.5324,-1.64117 3.80893,-1.84184c0.90564,-0.14237 1.83333,0.02715 2.74999,0.04073c2.14424,1.37635 3.82445,2.88828 5.5975,4.66821c0.35135,0.35271 0.4806,0.90607 0.87409,1.21105c0.52538,0.4072 1.2375,0.50463 1.79884,0.86062c3.36501,2.134 6.41808,4.89053 9.60549,7.28038c3.2727,2.4538 6.77301,4.50221 10.1135,6.84881c2.45139,1.72203 4.52072,4.00371 6.86855,5.88903c4.37419,2.70063 5.08888,7.59373 5.92326,12.2207c0.7481,4.1485 2.0218,8.33155 2.3102,12.59489c0.41176,6.08706 0.00412,12.35607 0.00412,18.46146c0,8.73588 0,17.47176 0,26.20764c0,1.84647 0.0415,3.70681 0.0633,5.56912c2.90906,0 5.81812,0 8.72717,0c0.70441,0 4.49569,-0.00473 4.64449,0.02351c5.59552,1.06197 10.61416,4.83107 12.41732,10.2743c1.1826,3.56994 0.74596,7.63288 0.70409,11.32523c-0.53909,1.30634 -1.20235,3.27657 -2.31479,4.21459c-1.71388,1.44517 -4.58017,1.66774 -7.05207,1.68353c0.28085,1.99839 0.23146,4.53657 -0.0689,5.41065c-2.09304,6.09095 -10.76734,3.25428 -14.59337,0.9276c-4.01229,-2.43994 -3.45544,-7.13063 -3.45544,-11.25534c0,-0.69307 -0.05622,-4.11013 0.22127,-4.53489c1.37151,-2.09939 3.21702,-1.64193 5.20331,-1.66314c0.83888,0.33987 1.80256,0.46344 2.51665,1.0196c0.57204,0.44554 0.84837,1.18585 1.15729,1.84182c0.08908,0.18916 -0.19137,0.69775 0.00546,0.62723c0.31894,-0.11427 0.32902,-0.60616 0.57775,-0.83618c0.73932,-0.68372 2.07991,-0.80109 2.47996,-1.72522c0.21449,-0.49548 0.18409,-3.28284 -0.24801,-3.77814c-1.80401,-2.06785 -4.78638,-1.98013 -7.21815,-1.98013c-1.76866,0 -2.99936,-0.20957 -4.5963,0.52275l-0.78629,0.39631c0,0 -0.1935,0.09675 -0.47502,0.14961c-1.33314,3.14561 -2.41163,6.60145 -2.83594,9.83292c-0.17725,1.34988 -0.08933,2.73316 -0.35064,4.06931c-0.66121,2.9448 -1.27611,6.14402 -1.27507,9.16197c0.00031,0.89402 -0.49206,1.96589 0.04356,2.6817c0.28565,0.38174 0.90884,0.32991 1.29206,0.61357c0.46192,0.3419 0.72588,0.91519 1.20404,1.23399c0.99455,0.6631 2.2248,0.97575 3.11987,1.76801c1.43095,1.2666 2.73257,2.67938 4.21046,3.89087c0.93771,0.76868 2.10579,1.23094 3.02045,2.02691c0.37992,0.33062 0.47967,0.92388 0.88213,1.22665c0.41624,0.31313 1.01996,0.27159 1.46631,0.54006c1.89251,1.13833 3.52957,2.57377 4.94616,4.20381l0.12587,-0.16782l1.29513,0.97135c0.40651,0.29806 0.67044,0.77912 0.67044,1.32182c0,0.90463 -0.73335,1.63798 -1.63798,1.63798h-1.63798c-2.70926,0 -5.74413,0.384 -8.41708,-0.01583c-0.78623,-0.11761 -1.508,-0.53067 -2.29317,-0.65519c-3.1512,-0.49974 -6.57459,0.27516 -9.76208,0.00786c-2.86814,-0.24052 -5.52341,-1.07903 -8.29086,-1.65116c-2.73941,-0.56633 -6.39521,0.02008 -9.22005,-0.0084c-2.86972,-1.10881 -6.20417,-1.23352 -8.05309,-4.18962c-0.35826,-0.5728 0.01575,-1.36221 -0.12509,-2.02298c-0.12258,-0.57513 -0.54489,-1.06036 -0.65519,-1.63798c-0.19184,-1.00458 0.40922,-2.10848 0.0545,-3.06773c-0.18937,-0.5121 -0.8162,-0.79043 -0.98279,-1.31038c-0.4668,-1.45698 0.09451,-3.55563 -0.35221,-4.99467c-0.18877,-0.60811 -0.83955,-1.01757 -0.98279,-1.63798c-0.20609,-0.89265 0.10262,-1.84174 -0.02988,-2.74824c-0.21786,-1.49053 -1.34706,-2.81267 -2.07809,-4.03495c-1.33369,-2.22995 -2.92101,-5.32088 -5.81376,-5.11988c-2.93944,-0.01587 -5.31666,1.12287 -8.07523,1.90474c-0.6815,0.19316 -1.43851,0.03411 -2.1086,0.26375c-1.36446,0.46761 -3.37406,2.20908 -4.23905,3.41209c-2.20133,3.06158 -2.88708,7.40243 -3.9854,10.92124c-0.9918,3.17754 0.47937,7.83532 -1.75509,10.56367c-0.53226,0.6499 -1.59884,0.51804 -2.40897,0.74022c-2.98174,0.81772 -5.69522,0.69543 -8.76072,0.69097c-3.1522,0.45031 -6.33226,0.42011 -9.50027,0.65519c-1.63792,0.12154 -3.20333,0.74706 -4.82991,0.97464c-4.52268,0.63278 -9.39045,-0.1754 -13.95523,0.04785c-2.15177,0.10523 -4.25269,0.70648 -6.39442,0.93924c-1.83822,0.19977 -5.31121,0.43882 -7.15702,0.00385c-1.27878,-0.30135 -3.19101,-0.14712 -3.69995,-1.35834c-0.89669,-2.134 3.48674,-4.79575 4.74567,-5.80301c5.32461,-4.41714 11.87636,-7.29849 18.00088,-10.35538c1.46305,-0.73024 3.5597,-2.49483 5.13426,-3.02855c0.87059,-0.2951 1.88129,-0.02074 2.7334,-0.36559c0.24608,-0.09959 0.08303,-0.52448 0.1166,-0.78781c0.22897,-1.79563 0.05879,-3.62795 0.29683,-5.4224c0.09082,-0.68464 0.53758,-1.28503 0.65519,-1.96557c0.20625,-1.19345 -0.25704,-2.451 0.00513,-3.63343c0.20196,-0.91087 0.76407,-1.71377 0.98279,-2.62076c0.4518,-1.87355 -0.02628,-4.30901 -0.02628,-6.25965c0,-0.4924 -0.03366,-1.60371 0.02797,-2.64706c-0.09538,-0.07243 -0.14881,-0.12586 -0.14881,-0.12586zM448.03159,392.36697c-1.44344,0 -3.32797,-0.40573 -4.62665,0.4274c-3.01023,1.93113 -5.77664,4.41223 -5.96811,8.07146c-0.1133,2.16535 -0.97641,2.61761 1.0723,3.60581c0.89367,0.74244 4.79175,3.09195 4.9958,3.98457c0.22465,0.98271 -0.82785,1.84029 -1.17291,2.78746c-0.75882,2.08294 -0.06873,3.98852 0.66768,5.9562c0.35154,0.93932 0.25625,1.36443 1.3151,1.72812c1.12057,0.38489 2.29256,0.70327 3.47685,0.73874c1.33443,0.03997 2.82921,-1.31403 3.67398,-2.14705c2.12427,-2.09473 2.95905,-5.62534 1.41317,-8.28193c-1.91905,-1.6866 -5.05828,-1.74325 -6.72487,-3.65955c-1.84908,-2.12614 -1.59548,-5.67634 0.78847,-7.28227c2.90713,-1.95837 8.01347,-0.5953 11.08085,0.56752c0,-1.97841 0,-3.95682 0,-5.93522c-3.25791,-0.62935 -6.69255,-0.56126 -9.99166,-0.56126zM560.05821,402.83547c1.04649,1.43963 1.41994,5.49526 0.62558,7.14171c-0.30587,0.63396 -2.83007,2.63456 -3.63516,3.07951c-0.93736,0.51805 -1.85412,1.48244 -2.9166,1.34779c-2.34379,-0.29705 -1.839,-2.93286 -3.7461,-3.50004c-0.59563,-0.01359 -1.61423,-0.48664 -1.78539,0.08404c-0.09108,0.30368 0.19707,0.60891 0.22127,0.92503c0.11113,1.45173 0.00217,2.91196 0,4.36794c-0.00221,1.48457 -0.23021,4.04591 0.75334,5.33617c0.3639,0.47737 1.98637,1.0576 2.41347,1.24332c2.10396,0.91485 4.0578,2.02914 6.46049,1.63996c0.57109,-0.0925 1.86546,-0.45822 2.02587,-1.29382c0.10595,-0.55189 -0.06684,-1.12224 -0.07814,-1.6841c-0.01866,-0.92782 0.3926,-1.9772 0.08261,-2.81965l-1.16793,-0.43797c-0.63967,-0.22297 -1.09865,-0.83144 -1.09865,-1.54712c0,-0.90463 0.73335,-1.63798 1.63798,-1.63798c0.14985,0 0.29501,0.02012 0.4329,0.05782l1.5641,0.39102c1.79487,-0.00506 5.30721,0.31445 6.79395,-0.95243c0.23504,-0.20028 1.02616,-2.00156 1.17957,-2.33732c-0.04557,-3.12161 0.4058,-6.62788 -0.60629,-9.64088c-1.44121,-4.29049 -5.43658,-7.22032 -9.85917,-8.07105c-1.33927,-0.25762 -2.72758,0.02351 -4.0914,0.02351c-2.90716,0 -5.81432,0 -8.72148,0c-0.01484,1.23557 -0.05419,2.46893 -0.13598,3.69661c0.18276,0.58812 -0.05018,1.17046 -0.05018,1.17046l-0.0537,0.13396c-0.00663,0.071 -0.01342,0.14197 -0.02037,0.21291c4.47655,-1.02966 11.17096,-0.51228 13.7754,3.07058zM541.44724,402.45415c-6.29039,1.38158 -12.58051,1.26946 -19.21526,1.26946c-8.08069,0 -16.16138,0 -24.24207,0c-9.82786,0 -19.65573,0 -29.48359,0c-1.85637,0 -3.71276,0.00304 -5.56912,0c-0.83458,-0.00137 -1.41779,0.18804 -1.91796,-0.06668c0.06935,0.55789 -0.04761,1.13836 -0.04761,1.70465c0,2.15995 0.44033,4.73971 -0.02628,6.84416c-0.20196,0.91087 -0.76407,1.71377 -0.98279,2.62076c-0.27926,1.15803 0.1948,2.39764 0.00513,3.57367c-0.10997,0.68182 -0.56343,1.28107 -0.65519,1.96557c-0.29033,2.16576 0.71876,6.61997 -1.55213,8.20399c-1.04,0.72543 -2.50047,0.48364 -3.69128,0.91934c-0.69067,0.25271 -4.51912,2.7425 -4.82084,2.89361c-5.88847,2.94916 -12.2741,5.67985 -17.37943,9.95555c-0.55677,0.44537 -1.10641,0.89982 -1.67032,1.33612c0.23189,0.00727 0.45026,0.01608 0.63435,0.01589c2.81248,-0.0028 5.10426,-0.22108 7.88965,-0.62529c5.65829,-0.82112 11.53343,0.47393 17.13507,-0.34523c1.68054,-0.24576 3.30486,-0.85654 4.99795,-0.99094c3.16747,-0.25144 6.34698,-0.20472 9.50027,-0.65519c2.96506,-0.00399 5.39102,-0.14946 8.27425,-0.61941c0.2866,-0.04672 0.70665,0.32713 0.86698,0.08503c0.76372,-1.15316 0.06784,-2.76598 0.15006,-4.14666c0.05721,-0.96073 0.35116,-3.74545 0.71561,-4.9454c1.19537,-3.93574 2.04755,-8.62267 4.53208,-12.01044c1.16873,-1.59361 3.73738,-3.74806 5.58882,-4.4502c0.78182,-0.2965 1.67422,-0.16013 2.47774,-0.39144c3.05429,-0.87926 5.70945,-2.01201 8.95974,-2.02641c0.84106,0.03261 1.7445,-0.2217 2.52318,0.09783c0.98431,0.40392 1.72063,1.25801 2.51251,1.9686c2.46043,2.20784 5.51657,6.28735 6.07299,9.74485c0.13206,0.8206 -0.21669,1.6834 -0.02988,2.49329c0.14311,0.62044 0.80477,1.02664 0.98279,1.63798c0.4023,1.38157 -0.1619,3.50434 0.30298,4.83319c0.1803,0.51537 0.82218,0.78855 0.98279,1.31038c0.34167,1.11015 -0.18522,2.34765 0.0545,3.48417c0.12136,0.57539 0.54913,1.05957 0.65519,1.63798c0.0757,0.41285 -0.32705,0.88503 -0.12509,1.25297c0.84782,1.54458 4.27821,1.76764 5.70592,2.36229c2.88002,-0.03683 6.3172,-0.55303 9.12529,-0.00841c2.71331,0.52624 5.27734,1.39223 8.08892,1.6248c3.24703,0.2686 6.67065,-0.47425 9.89365,0.00786c0.78623,0.11761 1.508,0.53067 2.29317,0.65519c1.57211,0.24932 3.30982,0.1789 5.01523,0.09223c-0.79544,-0.69342 -1.56122,-1.42875 -2.46357,-1.9688c-0.56254,-0.33667 -1.28471,-0.37759 -1.80965,-0.77032c-0.47125,-0.35256 -0.64164,-1.00529 -1.08344,-1.39412c-1.62565,-1.43071 -3.61295,-2.42933 -5.25743,-3.94568c-0.58122,-0.53593 -1.99519,-2.19532 -2.96552,-2.72225c-1.11033,-0.60295 -2.16988,-1.30993 -3.1539,-2.10244c-0.62326,-0.50196 -1.55683,-0.67522 -1.98389,-1.352c-0.71895,-1.13934 -0.61202,-3.19085 -0.61163,-4.52539c0.00095,-3.25783 0.64621,-6.66048 1.3457,-9.83857c0.25532,-1.24243 0.13464,-2.53601 0.30455,-3.79298c0.48561,-3.59247 1.66749,-7.428 3.15081,-10.89719zM461.01138,400.43085c0.14382,0.01531 0.2853,0.02418 0.42293,0.02239c2.35668,-0.03062 4.71518,-0.00558 7.072,-0.00558c9.82786,0 19.65573,0 29.48359,0c8.08069,0 16.16138,0 24.24207,0c3.85561,0 7.83579,0.29746 11.67732,0.00412c3.05418,-0.23322 5.99638,-1.08418 9.02848,-1.30449l0.31758,-0.79588c-0.23997,-0.99767 -0.05727,-2.11821 -0.05727,-3.14528c0,-2.62076 0,-5.24153 0,-7.86229c0,-9.28187 0,-18.56375 0,-27.84562c0,-6.02987 0.39837,-12.21682 0.00412,-18.22923c-0.27323,-4.16684 -1.53306,-8.24662 -2.27614,-12.30237c-0.66739,-3.64261 -0.9981,-7.99435 -4.55979,-10.05579c-2.35369,-1.8767 -4.43898,-4.1952 -6.89046,-5.90441c-3.37739,-2.35476 -6.89717,-4.43431 -10.19742,-6.9102c-3.12055,-2.34109 -6.10771,-5.03486 -9.39505,-7.13382c-0.67473,-0.43081 -1.5011,-0.61258 -2.13231,-1.10495c-1.94864,-1.52001 -3.25624,-3.78353 -5.32185,-5.25899c-4.03794,0.13923 -8.12329,4.18963 -11.50033,6.08525c-1.83176,1.02821 -4.09739,1.5351 -5.87326,2.60735c-1.06742,0.6445 -1.86089,1.69465 -2.95321,2.29599c-1.36121,0.74936 -2.90904,1.13858 -4.2337,1.9508c-2.2691,1.39129 -4.36089,3.44804 -6.23856,5.32409c-1.91869,1.91703 -3.28078,2.98145 -4.33766,5.57729c-1.57745,1.90656 -2.09365,3.37613 -3.22216,5.47149c-1.36361,2.53186 -2.53784,4.6663 -2.77905,7.61013c-0.27684,3.37866 0.00797,6.93453 0.00797,10.32165c0,6.66111 0,13.32222 0,19.98333c0,13.21302 0,26.42604 0,39.63905c0,0 0,0.51388 -0.28783,0.96598z" fill="#000000" stroke="none" stroke-width="0.5"/><path d="M538.32829,413.34373c-0.16991,1.25696 -0.04873,2.55311 -0.30404,3.79554c-0.69949,3.17809 -1.34443,6.58791 -1.34538,9.84574c-0.00039,1.33455 -0.1077,3.38931 0.61125,4.52865c0.42707,0.67678 1.36051,0.85074 1.98377,1.3527c0.98402,0.79251 2.04338,1.50043 3.15371,2.10338c0.97033,0.52693 2.38401,2.18752 2.96523,2.72345c1.64448,1.51635 3.63141,2.51628 5.25706,3.94699c0.44181,0.38883 0.61203,1.04207 1.08328,1.39463c0.52494,0.39273 1.24708,0.43374 1.80962,0.77041c0.90235,0.54004 1.66795,1.27589 2.46339,1.96931c-1.70542,0.08667 -3.4434,0.15786 -5.01551,-0.09146c-0.78516,-0.12452 -1.50698,-0.53749 -2.2932,-0.6551c-3.22301,-0.48211 -6.64749,0.26282 -9.89452,-0.00577c-2.81158,-0.23257 -5.37624,-1.09724 -8.08955,-1.62348c-2.80809,-0.54462 -6.2473,-0.025 -9.12732,0.01183c-1.42771,-0.59465 -4.91156,-0.85557 -5.75938,-2.40015c-0.20197,-0.36795 0.20005,-0.83908 0.12435,-1.25193c-0.10606,-0.57841 -0.5345,-1.06156 -0.65586,-1.63695c-0.23972,-1.13653 0.28529,-2.37061 -0.05638,-3.48075c-0.16061,-0.52184 -0.80294,-0.79403 -0.98323,-1.3094c-0.46488,-1.32885 0.09731,-3.44528 -0.30499,-4.82685c-0.17802,-0.61134 -0.84007,-1.01528 -0.98318,-1.63572c-0.18681,-0.80989 0.16164,-1.66863 0.02958,-2.48923c-0.55643,-3.4575 -3.60682,-7.51809 -6.06725,-9.72593c-0.79188,-0.71059 -1.52423,-1.55992 -2.50854,-1.96384c-0.77868,-0.31954 -1.67895,-0.06247 -2.52002,-0.09508c-3.25029,0.0144 -5.88515,1.15386 -8.93944,2.03312c-0.80352,0.23132 -1.68739,0.0937 -2.46921,0.3902c-1.85144,0.70214 -4.40064,2.84141 -5.56937,4.43502c-2.48453,3.38777 -3.33669,8.04207 -4.53206,11.97781c-0.36445,1.19996 -0.66259,3.97892 -0.71981,4.93964c-0.08223,1.38068 0.61035,2.99034 -0.15337,4.1435c-0.16034,0.2421 -0.62303,-0.08201 -0.90963,-0.0353c-2.88323,0.46995 -5.31373,0.61047 -8.27879,0.61446c-3.15329,0.45047 -6.33528,0.39987 -9.50275,0.65131c-1.69309,0.1344 -3.31797,0.74412 -4.9985,0.98988c-5.60163,0.81916 -11.4784,-0.47975 -17.1367,0.34137c-2.78539,0.40421 -5.07748,0.62154 -7.88996,0.62433c-0.18409,0.00018 -0.40249,-0.00872 -0.63438,-0.01599c0.56391,-0.4363 1.11343,-0.89113 1.6702,-1.3365c5.10533,-4.27569 11.49016,-7.00967 17.37864,-9.95883c0.30172,-0.15111 4.12991,-2.64251 4.82058,-2.89521c1.19081,-0.4357 2.65123,-0.19428 3.69123,-0.91971c2.2709,-1.58403 1.26176,-6.04595 1.55209,-8.21171c0.09176,-0.68451 0.5455,-1.28571 0.65547,-1.96753c0.18967,-1.17603 -0.28365,-2.41891 -0.00439,-3.57694c0.21872,-0.90699 0.78165,-1.71243 0.98361,-2.6233c0.46661,-2.10446 0.02871,-4.68935 0.02871,-6.84929c0,-0.56629 0.11764,-1.14787 0.04828,-1.70575c0.50018,0.25472 1.08387,0.06458 1.91845,0.06594c1.85636,0.00304 3.71468,-0.00256 5.57105,-0.00256c9.82786,0 19.68857,-0.01092 29.51644,-0.01092c8.08069,0 16.18056,0.01305 24.26125,0.01305c6.63476,0 12.92793,0.11751 19.21833,-1.26407c-1.48332,3.46919 -2.66323,7.31052 -3.14884,10.90299z" data-paper-data="{&quot;noHover&quot;:false,&quot;origItem&quot;:[&quot;Path&quot;,{&quot;applyMatrix&quot;:true,&quot;segments&quot;:[[[574.15546,493.37165],[-4.52791,10.58987],[-19.20171,4.21732]],[[515.5,497.24673],[20.2529,0],[-24.66667,0]],[[441.5,497.24673],[24.66667,0],[-30,0]],[[351.5,497.24673],[30,0],[-5.66664,0]],[[334.5,497.24673],[5.66663,0.00927],[-2.54758,-0.00417]],[[328.64533,497.0432],[1.52681,0.77754],[0.2117,1.70297]],[[328.5,502.24673],[0,-1.72864],[0,6.59333]],[[328.41977,523.13885],[1.42435,-6.42395],[-0.6165,2.78047]],[[325.41977,531.13885],[0.66765,-2.76864],[-0.85244,3.53494]],[[325.43544,542.04764],[0.57898,-3.58988],[-0.33568,2.08129]],[[323.43544,548.04764],[0.28011,-2.08949],[-0.88624,6.61107]],[[318.69748,573.0907],[6.93202,-4.83531],[-3.17465,2.21442]],[[307.42969,575.89703],[3.63499,-1.33],[-2.10829,0.7714]],[[292.71385,584.7299],[0.92102,-0.46128],[-17.97483,9.00245]],[[239.66236,615.11965],[15.58425,-13.05175],[-1.69958,1.35951]],[[234.56363,619.19821],[1.72136,-1.33183],[0.70785,0.02219]],[[236.5,619.24673],[-0.56193,0.00056],[8.58522,-0.00854]],[[260.58351,617.33801],[-8.50254,1.23387],[17.2722,-2.5065]],[[312.88908,616.28419],[-17.09924,2.50052],[5.12992,-0.75018]],[[328.14555,613.25931],[-5.16823,0.41026],[9.66885,-0.76753]],[[357.14555,611.25931],[-9.62556,1.37508],[9.05097,-0.01217]],[[382.40306,609.36854],[-8.80118,1.43454],[0.87486,-0.1426]],[[385.04957,609.62809],[-0.48944,0.73902],[2.33128,-3.52006]],[[385.50765,596.97023],[-0.251,4.21458],[0.17465,-2.93266]],[[387.69208,581.87416],[-1.11251,3.66292],[3.64892,-12.01402]],[[401.52647,545.21176],[-7.58414,10.34131],[3.5676,-4.86457]],[[418.58658,531.62733],[-5.6516,2.14332],[2.38655,-0.90508]],[[426.14999,530.43243],[-2.45279,0.7061],[9.32337,-2.68397]],[[453.5,524.24673],[-9.92165,0.04395],[2.56738,0.09955]],[[461.20213,524.54537],[-2.37696,-0.9754],[3.00465,1.23298]],[[468.87169,530.55461],[-2.41726,-2.1691],[7.51058,6.73953]],[[487.40978,560.30119],[-1.69852,-10.55417],[0.40312,2.50491]],[[487.31857,567.91206],[-0.57024,-2.47223],[0.43685,1.89392]],[[490.31857,572.91206],[-0.5434,-1.86614],[1.22804,4.2173]],[[491.24342,587.66559],[-1.41907,-4.05637],[0.55036,1.57318]],[[494.24342,591.66559],[-0.49026,-1.59293],[1.04297,3.38877]],[[494.40978,602.30119],[-0.73175,-3.4693],[0.37046,1.75641]],[[496.40978,607.30119],[-0.32376,-1.76562],[0.23109,1.26025]],[[496.02795,611.12595],[-0.61652,-1.12318],[2.58802,4.7149]],[[513.44554,618.33695],[-4.35816,-1.81519],[8.79139,-0.11243]],[[541.30091,618.31129],[-8.57182,-1.66249],[8.2825,1.60638]],[[565.99269,623.27106],[-8.58247,-0.70994],[9.91171,0.8199]],[[596.19351,623.29506],[-9.83837,-1.47166],[2.4,0.359]],[[603.19351,625.29506],[-2.39675,-0.3801],[4.79895,0.76106]],[[618.50274,625.5766],[-5.20586,0.26457],[-2.42813,-2.11671]],[[610.98259,619.56676],[2.75447,1.64851],[-1.71718,-1.02771]],[[605.45856,617.21531],[1.60241,1.19883],[-1.43852,-1.07621]],[[602.1513,612.95971],[1.34863,1.18691],[-4.96238,-4.36731]],[[586.10275,600.91534],[5.01986,4.62872],[-1.7742,-1.63595]],[[577.05037,592.60555],[2.96198,1.60848],[-3.38932,-1.84054]],[[567.42294,586.18775],[3.00378,2.41917],[-1.90253,-1.53225]],[[561.36702,582.0607],[1.30364,2.0659],[-2.19463,-3.47788]],[[559.5,568.24673],[-0.00119,4.07377],[0.0029,-9.94468]],[[563.6078,538.21405],[-2.13523,9.70125],[0.77937,-3.79258]],[[564.53746,526.63581],[-0.51866,3.83694],[1.48236,-10.96618]]],&quot;closed&quot;:true}]}" fill="#a2a2a2" stroke="none" stroke-width="0.5"/><path d="M546.30808,399.78574c0.00696,-0.07095 -0.03655,-0.1839 -0.02993,-0.2549l0.05389,-0.13418c0,0 0.23419,-0.58372 0.05143,-1.17184c0.08179,-1.22767 0.12471,-2.46424 0.13955,-3.69981c2.90716,0 5.82827,-0.00626 8.73543,-0.00626c1.36382,0 2.76097,-0.28159 4.10024,-0.02396c4.42259,0.85073 8.44303,3.79594 9.88423,8.08643c1.01209,3.01299 0.56478,6.54397 0.61035,9.66558c-0.1534,0.33575 -0.94691,2.14378 -1.18194,2.34406c-1.48674,1.26688 -5.01125,0.96096 -6.80612,0.96602l-1.56954,-0.38829c-0.1379,-0.03769 -0.28507,-0.05711 -0.43492,-0.05711c-0.90463,0 -1.64728,0.73487 -1.64728,1.6395c0,0.71567 0.45385,1.25895 1.09351,1.48192l1.16423,0.43871c0.30999,0.84245 -0.08683,1.9557 -0.06817,2.88352c0.0113,0.56186 0.18353,1.13231 0.07758,1.6842c-0.16041,0.8356 -1.45961,1.20179 -2.0307,1.2943c-2.40269,0.38918 -4.37092,-0.72805 -6.47489,-1.6429c-0.42711,-0.18572 -2.05481,-0.76894 -2.4187,-1.24631c-0.98355,-1.29026 -0.76316,-3.85905 -0.76095,-5.34362c0.00217,-1.45598 0.10586,-2.9273 -0.00527,-4.37903c-0.0242,-0.31612 -0.31302,-0.62453 -0.22194,-0.92821c0.17116,-0.57067 1.25435,-0.10859 1.84998,-0.095c1.9071,0.56719 1.39064,3.18336 3.73442,3.48041c1.06249,0.13466 1.96784,-0.83568 2.9052,-1.35373c0.80509,-0.44496 3.28793,-2.42001 3.59379,-3.05397c0.79436,-1.64645 0.44382,-5.66475 -0.60267,-7.10438c-2.60444,-3.58286 -9.26426,-4.1108 -13.74082,-3.08114z" data-paper-data="{&quot;noHover&quot;:false,&quot;origItem&quot;:[&quot;Path&quot;,{&quot;applyMatrix&quot;:true,&quot;segments&quot;:[[[630.96628,494.53562],[-7.95017,-10.93683],[3.19447,4.39455]],[[632.8759,516.33601],[2.42481,-5.02585],[-0.93367,1.93519]],[[621.77941,525.73636],[2.45758,-1.35825],[-2.86132,1.58138]],[[612.87635,529.85054],[3.24329,0.41105],[-7.15451,-0.90676]],[[601.44121,519.1665],[5.82151,1.73136],[-1.8182,-0.04149]],[[595.99122,519.42303],[0.52247,-1.74201],[-0.27803,0.92699]],[[596.66667,522.24673],[-0.07387,-0.96496],[0.33923,4.43148]],[[596.66667,535.58006],[0.00663,-4.44444],[-0.00676,4.53173]],[[598.96628,551.86895],[-3.00234,-3.93858],[1.11081,1.4572]],[[606.33352,555.66423],[-1.30377,-0.56691],[6.42244,2.79262]],[[626.05446,560.67028],[-7.33431,1.18799],[1.74328,-0.28237]],[[632.23852,556.72084],[-0.48967,2.5507],[0.32342,-1.68467]],[[632,551.58006],[0.0345,1.71509],[-0.05697,-2.83222]],[[632.25218,542.97296],[0.94625,2.57161],[0,0]],[[628.68701,541.63603],[0,0],[-1.95261,-0.68062]],[[625.33333,536.91339],[0,2.18463],[0,-2.76142]],[[630.33333,531.91339],[-2.76142,0],[0.45743,0]],[[631.65479,532.08988],[-0.42094,-0.11506],[0,0]],[[636.42927,533.2835],[0,0],[5.47892,-0.01546]],[[657.1681,530.37616],[-4.53834,3.86721],[0.71746,-0.61136]],[[660.76878,523.2414],[-0.46827,1.0249],[-0.13911,-9.52886]],[[658.91805,493.81219],[3.08944,9.1973],[-4.39935,-13.09691]],[[628.8225,469.17495],[13.50015,2.5969],[-4.08817,-0.78641]],[[616.33333,469.24673],[4.16312,0],[-8.87424,0]],[[589.71062,469.24673],[8.87424,0],[-0.04529,3.77163]],[[589.29555,480.53079],[0.24966,-3.74753],[0.55789,1.79526]],[589.14238,484.10368],[[588.97845,484.51261],[0,0],[-0.02023,0.21672]],[[588.91626,485.16254],[0.02124,-0.21657],[13.66488,-3.14307]]],&quot;closed&quot;:true}]}" fill="#ffffff" stroke="none" stroke-width="0.5"/><path d="M458.04372,392.90265c0,1.97841 -0.04754,4.00084 -0.04754,5.97925c-3.06738,-1.16282 -8.14388,-2.51168 -11.05101,-0.55332c-2.38395,1.60593 -2.60869,5.13206 -0.75961,7.2582c1.66659,1.9163 4.80206,1.98162 6.72111,3.66821c1.54587,2.65659 0.69365,6.20103 -1.43062,8.29576c-0.84477,0.83302 -2.34949,2.18872 -3.68392,2.14874c-1.18429,-0.03548 -2.36479,-0.35485 -3.48536,-0.73974c-1.05885,-0.36369 -0.96792,-0.79024 -1.31946,-1.72955c-0.7364,-1.96768 -1.43723,-3.88038 -0.67841,-5.96333c0.34505,-0.94716 1.3927,-1.81091 1.16805,-2.79362c-0.20405,-0.89262 -4.10648,-3.2645 -5.00015,-4.00693c-2.0487,-0.9882 -1.18255,-1.44985 -1.06925,-3.6152c0.19147,-3.65923 2.97723,-6.15685 5.98746,-8.08798c1.29868,-0.83313 3.19419,-0.42892 4.63763,-0.42892c3.29911,0 6.75316,-0.06093 10.01107,0.56842z" data-paper-data="{&quot;noHover&quot;:false,&quot;origItem&quot;:[&quot;Path&quot;,{&quot;applyMatrix&quot;:true,&quot;segments&quot;:[[[289,462.58006],[10.07068,0],[-4.40616,0]],[[274.87694,463.88472],[3.96428,-2.54317],[-9.18886,5.89485]],[[256.65902,488.52323],[0.58447,-11.16997],[-0.34586,6.60983]],[[259.93225,499.53013],[-6.25376,-3.01652],[2.72796,2.26632]],[[275.18216,511.69321],[-0.62288,-2.72475],[0.68574,2.99976]],[[271.60181,520.20205],[1.05329,-2.89126],[-2.31633,6.35827]],[[273.63992,538.38363],[-2.2479,-6.00643],[1.07309,2.86731]],[[277.65431,543.65878],[-3.23218,-1.11017],[3.42058,1.17488]],[[288.26756,545.91383],[-3.6151,-0.10829],[4.0734,0.12202]],[[299.48255,539.35987],[-2.57869,2.54283],[6.48443,-6.39425]],[[303.79633,514.07891],[4.71884,8.10935],[-5.85799,-5.14842]],[[283.26837,502.90796],[5.08733,5.8496],[-5.6444,-6.49014]],[[285.67521,480.6785],[-7.27711,4.90218],[8.87414,-5.97801]],[[319.5,482.41087],[-9.36331,-3.54956],[0,-6.03918]],[[319.5,464.29333],[0,6.03918],[-9.94493,-1.92112]]],&quot;closed&quot;:true}]}" fill="#ffffff" stroke="none" stroke-width="0.5"/><path d="M472.19248,351.66107c-0.59744,-0.19915 -0.88861,-0.55142 -1.02071,-0.90964c-2.67101,3.20922 -3.80825,7.14333 -3.81205,11.80823c-0.00173,2.11813 -0.51171,5.47498 0.83118,7.40843c2.53426,3.64874 7.20275,3.17994 11.07146,3.17994c3.14112,0 7.27427,0.91903 9.92561,-1.19251c1.87911,-1.49654 1.90742,-2.94016 2.74667,-4.97814c2.45444,-5.96026 3.80268,-13.48014 0.52446,-19.35797c-0.64057,-1.14854 -0.89329,-2.17857 -1.8872,-3.10551c-1.39654,-1.30244 -3.23339,-1.88511 -4.93497,-2.64515c-1.67281,-0.12495 -3.61742,-0.42777 -5.29097,-0.00849c-3.30696,0.82849 -4.5139,5.80573 -5.99495,8.40438l-0.08664,0.3605c0,0 -0.51797,1.55392 -2.0719,1.03595zM473.57243,344.54577c1.32381,-2.59965 2.90835,-5.01503 5.91672,-5.84745c2.20808,-0.61098 4.72642,-0.20776 6.93926,-0.00849c2.26783,0.9428 4.58478,1.7415 6.42167,3.46996c1.45886,1.37276 1.58283,2.26128 2.48074,3.88319c3.7462,6.76681 2.48733,15.24829 -0.34913,22.13746c-1.07364,2.60764 -1.41705,4.46225 -3.80524,6.3785c-3.35361,2.6909 -7.9343,1.86504 -11.91409,1.86504c-4.10325,0 -8.43543,0.32929 -11.7602,-2.57214c-3.60793,-3.14854 -3.43481,-6.86845 -3.41839,-11.29995c0.02762,-7.45378 2.64982,-13.40678 8.77934,-17.71778c0,0 0.29698,-0.20789 0.70931,-0.28835z" fill="#000000" stroke="none" stroke-width="0.5"/><path d="M474.24174,350.60144l0.08741,-0.36121c1.48105,-2.59865 2.70884,-7.58424 6.01579,-8.41273c1.67355,-0.41928 3.6288,-0.11503 5.30162,0.00992c1.70158,0.76004 3.54846,1.34782 4.945,2.65026c0.99391,0.92694 1.25194,1.96197 1.89251,3.11051c3.27822,5.87784 1.92993,13.4402 -0.52451,19.40046c-0.83924,2.03798 -0.87608,3.48869 -2.75519,4.98523c-2.65134,2.11154 -6.80415,1.19674 -9.94527,1.19674c-3.86871,0 -8.55725,0.4592 -11.09151,-3.18953c-1.34289,-1.93345 -0.84025,-5.30178 -0.83853,-7.41991c0.0038,-4.6649 1.14484,-8.62928 3.81585,-11.83851c0.1321,0.35822 0.42298,0.71091 1.02042,0.91006c1.55392,0.51797 2.07641,-1.0413 2.07641,-1.0413z" data-paper-data="{&quot;noHover&quot;:false,&quot;origItem&quot;:[&quot;Path&quot;,{&quot;applyMatrix&quot;:true,&quot;segments&quot;:[[[362.75219,338.32348],[4.74342,1.58114],[-1.8237,-0.6079]],[[359.63644,335.54676],[0.40324,1.09348],[-8.15339,9.79629]],[[347.99999,371.59191],[0.0116,-14.23982],[-0.00527,6.4657]],[[350.5372,394.20647],[-4.09923,-5.90193],[7.73593,11.13793]],[[384.33333,403.91339],[-11.80942,0],[9.58841,0]],[[414.6317,400.27319],[-8.09332,6.44558],[5.73608,-4.56826]],[[423.01603,385.0772],[-2.56183,6.22103],[7.4923,-18.19396]],[[424.61697,325.98611],[10.0069,17.94236],[-1.95537,-3.50597]],[[418.85621,316.50639],[3.03395,2.82953],[-4.26301,-3.97577]],[[403.79199,308.43194],[5.19416,2.32007],[-5.10633,-0.38143]],[[387.64106,308.40602],[5.10859,-1.27986],[-10.09463,2.52901]],[[369.34122,334.06076],[4.52097,-7.9325],[0,0]],[369.07675,335.1612]],&quot;closed&quot;:true}]}" fill="#ffffff" stroke="none" stroke-width="0.5"/><path d="M484.47095,352.86586c0.56512,-0.67043 1.07503,-1.43729 1.88464,-1.68059c2.85158,-0.85696 4.38406,0.44323 5.19133,2.8694c0.07101,0.21342 0.05542,4.24454 0.05487,4.56996c-0.00677,4.03361 -1.26258,9.23543 -6.33279,9.49658c-4.53332,0.23349 -5.65196,-3.40765 -5.45897,-7.16843c0.1374,-2.67743 0.99076,-5.92839 3.35102,-7.62386c0.37907,-0.2723 0.84011,-0.37663 1.30989,-0.46305z" fill="#000000" stroke="none" stroke-width="0.5"/><path d="M528.96977,350.84352l-0.08664,-0.3605c-1.48105,-2.59865 -2.68799,-7.57588 -5.99495,-8.40438c-1.67355,-0.41928 -3.61816,-0.11646 -5.29097,0.00849c-1.70158,0.76004 -3.53843,1.34271 -4.93497,2.64515c-0.99391,0.92694 -1.24663,1.95697 -1.8872,3.10551c-3.27822,5.87784 -1.92998,13.39772 0.52446,19.35797c0.83924,2.03798 0.86755,3.4816 2.74667,4.97814c2.65134,2.11154 6.78449,1.19251 9.92561,1.19251c3.86871,0 8.5372,0.46879 11.07146,-3.17994c1.34289,-1.93345 0.8329,-5.29029 0.83118,-7.40843c-0.0038,-4.6649 -1.14103,-8.59901 -3.81205,-11.80823c-0.1321,0.35822 -0.42327,0.7105 -1.02071,0.90964c-1.55392,0.51797 -2.0719,-1.03595 -2.0719,-1.03595zM530.37103,345.05252c6.12952,4.311 8.75172,10.264 8.77934,17.71778c0.01642,4.4315 0.18955,8.15141 -3.41839,11.29995c-3.32477,2.90142 -7.65695,2.57214 -11.7602,2.57214c-3.97979,0 -8.56048,0.82586 -11.91409,-1.86504c-2.38819,-1.91625 -2.7316,-3.77087 -3.80524,-6.3785c-2.83646,-6.88916 -4.09533,-15.37065 -0.34913,-22.13746c0.89791,-1.62191 1.02188,-2.51043 2.48074,-3.88319c1.83689,-1.72847 4.15384,-2.52717 6.42167,-3.46996c2.21285,-0.19927 4.73118,-0.60248 6.93926,0.00849c3.00837,0.83242 4.59291,3.24779 5.91672,5.84745c0.41233,0.08046 0.70931,0.28835 0.70931,0.28835z" data-paper-data="{&quot;index&quot;:null}" fill="#000000" stroke="none" stroke-width="0.5"/><path d="M531.06881,351.86114c0.59744,-0.19915 0.88832,-0.55184 1.02042,-0.91006c2.67101,3.20922 3.81205,7.17361 3.81585,11.83851c0.00173,2.11813 0.50437,5.48646 -0.83852,7.41991c-2.53426,3.64874 -7.2228,3.18953 -11.09151,3.18953c-3.14112,0 -7.29394,0.9148 -9.94527,-1.19675c-1.87911,-1.49654 -1.91595,-2.94725 -2.75519,-4.98523c-2.45444,-5.96026 -3.80273,-13.52262 -0.52452,-19.40046c0.64057,-1.14854 0.8986,-2.18357 1.89251,-3.11051c1.39654,-1.30244 3.24342,-1.89022 4.945,-2.65026c1.67281,-0.12495 3.62807,-0.4292 5.30162,-0.00992c3.30696,0.82849 4.53474,5.81407 6.01579,8.41272l0.08741,0.36121c0,0 0.52249,1.55927 2.07641,1.0413z" data-paper-data="{&quot;noHover&quot;:false,&quot;origItem&quot;:[&quot;Path&quot;,{&quot;applyMatrix&quot;:true,&quot;segments&quot;:[[536.06743,335.82787],[[535.80296,334.72743],[0,0],[-4.52097,-7.9325]],[[517.50312,309.07269],[10.09463,2.52901],[-5.10859,-1.27986]],[[501.35219,309.09861],[5.10633,-0.38143],[-5.19416,2.32007]],[[486.28797,317.17306],[4.26301,-3.97577],[-3.03395,2.82953]],[[480.52721,326.65278],[1.95537,-3.50597],[-10.0069,17.94236]],[[482.12815,385.74387],[-7.4923,-18.19396],[2.56183,6.22103]],[[490.51248,400.93986],[-5.73608,-4.56826],[8.09332,6.44558]],[[520.81085,404.58006],[-9.58841,0],[11.80942,0]],[[554.60698,394.87314],[-7.73593,11.13793],[4.09923,-5.90193]],[[557.14419,372.25858],[0.00527,6.4657],[-0.0116,-14.23982]],[[545.50774,336.21343],[8.15339,9.79629],[-0.40324,1.09348]],[[542.39199,338.99015],[1.8237,-0.6079],[-4.74342,1.58114]]],&quot;closed&quot;:true}]}" fill="#ffffff" stroke="none" stroke-width="0.5"/><path d="M520.07309,353.54731c2.36026,1.69547 3.21362,4.94643 3.35102,7.62386c0.193,3.76079 -0.92565,7.40193 -5.45897,7.16843c-5.07021,-0.26115 -6.32602,-5.46297 -6.33279,-9.49658c-0.00055,-0.32542 -0.01614,-4.35654 0.05487,-4.56996c0.80727,-2.42617 2.33975,-3.72636 5.19133,-2.8694c0.80961,0.2433 1.31952,1.01016 1.88464,1.68059c0.46979,0.08642 0.93083,0.19075 1.30989,0.46305z" data-paper-data="{&quot;index&quot;:null}" fill="#000000" stroke="none" stroke-width="0.5"/><path d="M524.27729,387.75261c-0.51797,1.55392 -2.0719,1.03595 -2.0719,1.03595l-0.13722,-0.13434c-1.26383,-0.02036 -2.37192,-0.20012 -3.35545,-0.57301c-0.06296,0.05223 -0.1039,0.07952 -0.1039,0.07952l-0.51517,0.33224c-2.17798,1.78259 -5.25932,3.88836 -8.01019,4.68052c-3.25022,0.93595 -7.36933,0.28546 -10.72857,0.28546c-4.02441,0 -7.50835,0.00278 -11.39052,-1.16106c0,0 -1.5689,-0.47067 -1.09823,-2.03957c0.47067,-1.5689 2.03957,-1.09823 2.03957,-1.09823c3.57451,1.07312 6.73225,1.0229 10.44918,1.0229c2.98293,0 6.9338,0.71631 9.80075,-0.15133c2.25447,-0.68228 4.90875,-2.43191 6.70791,-3.94287c-0.39513,-0.44565 -0.76501,-0.95593 -1.11426,-1.53585c0,0 -0.81266,-1.42216 0.6095,-2.23483c1.42216,-0.81266 2.23483,0.6095 2.23483,0.6095c0.97808,1.86604 2.41798,2.49916 4.47455,2.45064l1.17317,0.30245c0,0 1.55392,0.51797 1.03595,2.07189z" fill="#000000" stroke="none" stroke-width="0.5"/><text transform="translate(490.18221,335.06344) scale(0.953,0.953)" font-size="40" xml:space="preserve" fill="#aeaeae" fill-rule="nonzero" stroke="none" stroke-width="1" stroke-linecap="butt" stroke-linejoin="miter" stroke-miterlimit="10" stroke-dasharray="" stroke-dashoffset="0" font-family="Sans Serif" font-weight="normal" text-anchor="start" style="mix-blend-mode: normal"><tspan x="0" dy="0">S</tspan></text></g><g><path d="M260.24231,414.57338c0,0 -12.7999,1.02799 -18.51692,-5.95285c-5.71702,-6.98084 -11.62767,-13.93646 -7.11808,-17.62963c4.50959,-3.69317 6.26779,5.52798 11.98482,12.50882c5.71702,6.98084 13.65019,11.07366 13.65019,11.07366z" fill="url(#color-12)" stroke="#000000" stroke-width="3" stroke-linecap="butt"/><path d="M284.22266,411.77048c-1.98527,11.1873 -4.03654,20.17799 -8.06249,19.46355c-4.02594,-0.71444 -2.38815,-9.77849 -0.40288,-20.96579c1.98527,-11.1873 3.56624,-20.26145 7.59218,-19.54701c4.02594,0.71444 2.85845,9.86196 0.87318,21.04926z" data-paper-data="{&quot;index&quot;:null}" fill="url(#color-13)" stroke="#000000" stroke-width="3" stroke-linecap="butt"/><path d="M275.179,414.00538l-5.73564,27.04914c0,0 13.19063,5.08752 6.71443,9.61162c-6.4762,4.52411 -20.2419,-0.16168 -20.2419,-0.16168l8.62776,-38.07455z" fill="url(#color-14)" stroke="#000000" stroke-width="3" stroke-linecap="round"/><path d="M264.68035,412.25987l-5.73564,27.04914c0,0 13.19063,5.08751 6.71443,9.61162c-6.4762,4.52411 -20.2419,-0.16168 -20.2419,-0.16168l8.62776,-38.07455z" fill="url(#color-15)" stroke="#000000" stroke-width="3" stroke-linecap="round"/><path d="M284.60932,403.2247c-1.92601,10.85335 -11.20285,18.28256 -20.72041,16.5936c-9.51756,-1.68896 -15.67172,-11.85652 -13.74572,-22.70988c1.92601,-10.85335 11.20286,-18.28255 20.72041,-16.59359c9.51756,1.68896 15.67172,11.85652 13.74571,22.70987z" fill="url(#color-16)" stroke="#000000" stroke-width="3" stroke-linecap="butt"/><path d="M282.46992,404.73635c-1.36111,7.67003 -7.46438,13.00056 -13.63203,11.90607c-6.16766,-1.0945 -10.06414,-8.19956 -8.70303,-15.8696c1.36111,-7.67003 7.46437,-13.00057 13.63203,-11.90607c6.16766,1.0945 10.06414,8.19956 8.70303,15.8696z" fill="url(#color-17)" stroke="none" stroke-width="3" stroke-linecap="butt"/><path d="M254.99673,385.18366c4.02594,0.71444 2.38814,9.77849 0.40287,20.96579c-1.98527,11.1873 -3.56624,20.26145 -7.59218,19.54701c-4.02594,-0.71444 -2.85845,-9.86196 -0.87318,-21.04926c1.98527,-11.1873 4.03654,-20.17799 8.06249,-19.46355z" data-paper-data="{&quot;index&quot;:null}" fill="url(#color-18)" stroke="#000000" stroke-width="3" stroke-linecap="butt"/><g><g data-paper-data="{&quot;index&quot;:null}" stroke="#000000" stroke-linecap="round"><path d="M282.42789,344.98796l18.20894,-12.98516l1.2717,27.98079" fill="url(#color-19)" stroke-width="3"/><path d="M286.04486,345.69402l12.04731,-8.75871l0.42223,15.81445z" fill="url(#color-20)" stroke-width="0"/></g><path d="M302.38725,366.73505c-2.4001,13.52495 -16.32511,22.36326 -31.10237,19.74092c-14.77726,-2.62234 -24.81092,-15.71229 -22.41082,-29.23725c2.4001,-13.52495 16.32511,-22.36326 31.10237,-19.74092c14.77726,2.62234 24.81092,15.71229 22.41081,29.23725z" fill="url(#color-21)" stroke="#000000" stroke-width="3" stroke-linecap="butt"/><g stroke="#000000" stroke-linecap="round"><path d="M251.21009,351.10432l10.82168,-25.83473l12.62917,18.45762" fill="url(#color-22)" stroke-width="3"/><path d="M256.88599,345.48004l5.83788,-14.70354l8.29801,12.36913z" fill="url(#color-23)" stroke-width="0"/></g><path d="M271.40776,360.30194c-0.44446,2.50462 -2.56445,4.22275 -4.73512,3.83754c-2.17067,-0.3852 -3.57004,-2.72786 -3.12558,-5.23248c0.44446,-2.50462 2.56445,-4.22275 4.73512,-3.83754c2.17067,0.3852 3.57003,2.72786 3.12557,5.23248z" fill="#000000" stroke="none" stroke-width="3" stroke-linecap="butt"/><path d="M299.62616,365.81567c-0.44446,2.50462 -1.88765,4.34285 -3.22344,4.1058c-1.33579,-0.23705 -2.05836,-2.45961 -1.6139,-4.96423c0.44446,-2.50462 1.88765,-4.34284 3.22344,-4.1058c1.33579,0.23705 2.05836,2.4596 1.6139,4.96422z" fill="#000000" stroke="none" stroke-width="3" stroke-linecap="butt"/><path d="M282.59732,369.69066c-0.20585,1.15999 -1.2739,1.94042 -2.38555,1.74316c-1.11166,-0.19727 -1.84596,-1.29755 -1.64011,-2.45754c0.20585,-1.15999 1.05648,-0.71522 2.16813,-0.51795c1.11166,0.19727 2.06337,0.07234 1.85752,1.23233z" fill="#000000" stroke="#000000" stroke-width="3" stroke-linecap="butt"/><path d="M283.48339,379.95819c0,0 -10.99177,1.45217 -14.61217,-0.06548c-3.6204,-1.51766 -5.55265,-8.38752 -5.55265,-8.38752" fill="none" stroke="#000000" stroke-width="3" stroke-linecap="round"/></g></g></g></g></svg>
